STARTFONT 2.1
FONT -FontForge-AnonymousProLHQwattash-Book-R-Normal--19-140-100-100-P-100-ISO10646-1
SIZE 14 100 100
FONTBOUNDINGBOX 13 21 -2 -5
COMMENT "Generated by fontforge, http://fontforge.sourceforge.net"
COMMENT "Copyright (c) Mark Simonson 2009-2010. All rights reserved."
STARTPROPERTIES 41
FOUNDRY "FontForge"
FAMILY_NAME "AnonymousProLHQwattash"
WEIGHT_NAME "Book"
SLANT "R"
SETWIDTH_NAME "Normal"
ADD_STYLE_NAME ""
PIXEL_SIZE 19
POINT_SIZE 140
RESOLUTION_X 100
RESOLUTION_Y 100
SPACING "P"
AVERAGE_WIDTH 100
CHARSET_REGISTRY "ISO10646"
CHARSET_ENCODING "1"
FONTNAME_REGISTRY ""
CHARSET_COLLECTIONS "ASCII ISOLatin1Encoding ISO8859-2 ISO8859-5 ISO8859-7 ISO8859-9 ISO8859-4 ISO10646-1"
FONT_NAME "AnonymousProLHQwattash"
FACE_NAME "Anonymous Pro qwattash patch with adjusted line height"
COPYRIGHT "Copyright (c) Mark Simonson 2009-2010. All rights reserved."
FONT_VERSION "1.002"
FONT_ASCENT 15
FONT_DESCENT 4
UNDERLINE_POSITION -2
UNDERLINE_THICKNESS 2
X_HEIGHT 7
CAP_HEIGHT 10
DEFAULT_CHAR 1
RAW_ASCENT 779
RAW_DESCENT 220
NORM_SPACE 10
RELATIVE_WEIGHT 40
RELATIVE_SETWIDTH 50
SUPERSCRIPT_X 0
SUPERSCRIPT_Y 8
SUPERSCRIPT_SIZE 11
SUBSCRIPT_X 0
SUBSCRIPT_Y 2
SUBSCRIPT_SIZE 11
FIGURE_WIDTH 10
AVG_LOWERCASE_WIDTH 100
AVG_UPPERCASE_WIDTH 100
ENDPROPERTIES
CHARS 630
STARTCHAR .null.dup1
ENCODING 0
SWIDTH 520 0
DWIDTH 10 0
BBX 1 1 0 0
BITMAP
00
ENDCHAR
STARTCHAR nonmarkingreturn
ENCODING 13
SWIDTH 520 0
DWIDTH 10 0
BBX 1 1 0 0
BITMAP
00
ENDCHAR
STARTCHAR space
ENCODING 32
SWIDTH 520 0
DWIDTH 10 0
BBX 1 1 0 0
BITMAP
00
ENDCHAR
STARTCHAR exclam
ENCODING 33
SWIDTH 520 0
DWIDTH 10 0
BBX 2 11 3 0
BITMAP
C0
C0
C0
C0
40
40
40
40
00
C0
C0
ENDCHAR
STARTCHAR quotedbl
ENCODING 34
SWIDTH 520 0
DWIDTH 10 0
BBX 5 4 2 7
BITMAP
98
90
90
90
ENDCHAR
STARTCHAR numbersign
ENCODING 35
SWIDTH 520 0
DWIDTH 10 0
BBX 8 8 0 0
BITMAP
24
24
FF
24
24
FF
24
24
ENDCHAR
STARTCHAR dollar
ENCODING 36
SWIDTH 520 0
DWIDTH 10 0
BBX 8 15 0 -2
BITMAP
08
08
7E
8B
89
88
78
1C
0A
09
C9
49
3E
08
08
ENDCHAR
STARTCHAR percent
ENCODING 37
SWIDTH 520 0
DWIDTH 10 0
BBX 9 12 0 0
BITMAP
6100
9300
9200
9400
6400
0800
1000
1000
2700
4880
4880
8700
ENDCHAR
STARTCHAR ampersand
ENCODING 38
SWIDTH 520 0
DWIDTH 10 0
BBX 9 11 0 0
BITMAP
7800
C400
8400
8400
5800
6000
B180
9900
8E00
8700
7980
ENDCHAR
STARTCHAR quotesingle
ENCODING 39
SWIDTH 520 0
DWIDTH 10 0
BBX 2 4 3 7
BITMAP
C0
C0
40
40
ENDCHAR
STARTCHAR parenleft
ENCODING 40
SWIDTH 520 0
DWIDTH 10 0
BBX 4 16 2 -3
BITMAP
10
20
60
40
80
80
80
80
80
80
80
80
40
60
20
10
ENDCHAR
STARTCHAR parenright
ENCODING 41
SWIDTH 520 0
DWIDTH 10 0
BBX 4 16 3 -3
BITMAP
80
40
60
20
10
10
10
10
10
10
10
10
20
60
40
80
ENDCHAR
STARTCHAR asterisk
ENCODING 42
SWIDTH 520 0
DWIDTH 10 0
BBX 8 8 0 0
BITMAP
08
08
CB
3C
3C
4B
88
08
ENDCHAR
STARTCHAR plus
ENCODING 43
SWIDTH 520 0
DWIDTH 10 0
BBX 9 8 0 0
BITMAP
0800
0800
0800
FF80
0800
0800
0800
0800
ENDCHAR
STARTCHAR comma
ENCODING 44
SWIDTH 520 0
DWIDTH 10 0
BBX 3 5 2 -3
BITMAP
20
60
40
40
80
ENDCHAR
STARTCHAR hyphen
ENCODING 45
SWIDTH 520 0
DWIDTH 10 0
BBX 8 1 0 4
BITMAP
FF
ENDCHAR
STARTCHAR period
ENCODING 46
SWIDTH 520 0
DWIDTH 10 0
BBX 2 2 3 0
BITMAP
C0
C0
ENDCHAR
STARTCHAR slash
ENCODING 47
SWIDTH 520 0
DWIDTH 10 0
BBX 8 14 0 -2
BITMAP
01
02
02
04
04
08
08
10
10
20
20
40
40
80
ENDCHAR
STARTCHAR zero
ENCODING 48
SWIDTH 520 0
DWIDTH 10 0
BBX 9 11 0 0
BITMAP
3E00
4300
4100
8280
8480
8880
9080
A080
4100
6100
3E00
ENDCHAR
STARTCHAR one
ENCODING 49
SWIDTH 520 0
DWIDTH 10 0
BBX 7 11 0 0
BITMAP
08
08
18
68
C8
08
08
08
08
08
3E
ENDCHAR
STARTCHAR two
ENCODING 50
SWIDTH 520 0
DWIDTH 10 0
BBX 8 11 0 0
BITMAP
3C
43
81
81
03
06
0C
18
31
41
7F
ENDCHAR
STARTCHAR three
ENCODING 51
SWIDTH 520 0
DWIDTH 10 0
BBX 8 11 0 0
BITMAP
3C
43
81
81
02
0C
03
81
81
C2
3C
ENDCHAR
STARTCHAR four
ENCODING 52
SWIDTH 520 0
DWIDTH 10 0
BBX 8 11 0 0
BITMAP
0C
0C
14
24
24
44
84
FF
04
04
1F
ENDCHAR
STARTCHAR five
ENCODING 53
SWIDTH 520 0
DWIDTH 10 0
BBX 8 11 0 0
BITMAP
FE
80
80
BC
C2
01
01
81
C1
42
3C
ENDCHAR
STARTCHAR six
ENCODING 54
SWIDTH 520 0
DWIDTH 10 0
BBX 8 11 0 0
BITMAP
3E
42
80
BC
C2
81
81
81
81
42
3C
ENDCHAR
STARTCHAR seven
ENCODING 55
SWIDTH 520 0
DWIDTH 10 0
BBX 8 11 0 0
BITMAP
FF
81
82
04
04
04
08
08
08
08
08
ENDCHAR
STARTCHAR eight
ENCODING 56
SWIDTH 520 0
DWIDTH 10 0
BBX 9 11 0 0
BITMAP
7E00
C100
8100
C100
3E00
6100
8080
8080
8080
4180
3E00
ENDCHAR
STARTCHAR nine
ENCODING 57
SWIDTH 520 0
DWIDTH 10 0
BBX 8 11 0 0
BITMAP
3C
42
81
81
81
81
43
3D
02
86
78
ENDCHAR
STARTCHAR colon
ENCODING 58
SWIDTH 520 0
DWIDTH 10 0
BBX 1 8 4 0
BITMAP
80
80
00
00
00
00
80
80
ENDCHAR
STARTCHAR semicolon
ENCODING 59
SWIDTH 520 0
DWIDTH 10 0
BBX 3 11 2 -3
BITMAP
20
20
00
00
00
00
20
60
40
40
80
ENDCHAR
STARTCHAR less
ENCODING 60
SWIDTH 520 0
DWIDTH 10 0
BBX 5 9 2 0
BITMAP
08
10
20
40
80
40
20
10
08
ENDCHAR
STARTCHAR equal
ENCODING 61
SWIDTH 520 0
DWIDTH 10 0
BBX 8 5 0 2
BITMAP
FF
00
00
00
FF
ENDCHAR
STARTCHAR greater
ENCODING 62
SWIDTH 520 0
DWIDTH 10 0
BBX 5 9 1 0
BITMAP
80
40
20
10
08
10
20
40
80
ENDCHAR
STARTCHAR question
ENCODING 63
SWIDTH 520 0
DWIDTH 10 0
BBX 6 11 2 0
BITMAP
78
C4
84
04
08
10
20
40
00
40
40
ENDCHAR
STARTCHAR at
ENCODING 64
SWIDTH 520 0
DWIDTH 10 0
BBX 9 11 0 0
BITMAP
3E00
4100
9C80
A480
A480
A480
A480
9F00
8000
4200
3C00
ENDCHAR
STARTCHAR A
ENCODING 65
SWIDTH 520 0
DWIDTH 10 0
BBX 10 11 -1 0
BITMAP
0C00
0C00
1A00
1200
1300
3100
2100
3F80
6080
4080
C0C0
ENDCHAR
STARTCHAR B
ENCODING 66
SWIDTH 520 0
DWIDTH 10 0
BBX 7 11 1 0
BITMAP
FC
82
82
82
FC
84
82
82
82
86
FC
ENDCHAR
STARTCHAR C
ENCODING 67
SWIDTH 520 0
DWIDTH 10 0
BBX 8 11 0 0
BITMAP
3D
43
81
81
80
80
80
80
81
42
3C
ENDCHAR
STARTCHAR D
ENCODING 68
SWIDTH 520 0
DWIDTH 10 0
BBX 9 11 0 0
BITMAP
FC00
8300
8100
8080
8080
8080
8080
8080
8100
8300
FC00
ENDCHAR
STARTCHAR E
ENCODING 69
SWIDTH 520 0
DWIDTH 10 0
BBX 7 11 1 0
BITMAP
FE
80
80
80
80
FC
80
80
80
80
FE
ENDCHAR
STARTCHAR F
ENCODING 70
SWIDTH 520 0
DWIDTH 10 0
BBX 7 11 1 0
BITMAP
FE
80
80
80
80
FC
80
80
80
80
80
ENDCHAR
STARTCHAR G
ENCODING 71
SWIDTH 520 0
DWIDTH 10 0
BBX 8 11 0 0
BITMAP
3D
43
81
81
80
8F
81
81
82
46
3C
ENDCHAR
STARTCHAR H
ENCODING 72
SWIDTH 520 0
DWIDTH 10 0
BBX 8 11 0 0
BITMAP
81
81
81
81
81
FF
81
81
81
81
81
ENDCHAR
STARTCHAR I
ENCODING 73
SWIDTH 520 0
DWIDTH 10 0
BBX 5 11 2 0
BITMAP
F8
20
20
20
20
20
20
20
20
20
F8
ENDCHAR
STARTCHAR J
ENCODING 74
SWIDTH 520 0
DWIDTH 10 0
BBX 8 11 0 0
BITMAP
01
01
01
01
01
01
01
01
C1
62
3C
ENDCHAR
STARTCHAR K
ENCODING 75
SWIDTH 520 0
DWIDTH 10 0
BBX 8 11 1 0
BITMAP
87
84
88
90
A0
F0
90
88
8C
84
83
ENDCHAR
STARTCHAR L
ENCODING 76
SWIDTH 520 0
DWIDTH 10 0
BBX 7 11 1 0
BITMAP
80
80
80
80
80
80
80
80
80
80
FE
ENDCHAR
STARTCHAR M
ENCODING 77
SWIDTH 520 0
DWIDTH 10 0
BBX 8 11 0 0
BITMAP
C3
C3
E7
A5
AD
99
99
99
81
81
81
ENDCHAR
STARTCHAR N
ENCODING 78
SWIDTH 520 0
DWIDTH 10 0
BBX 8 11 0 0
BITMAP
C1
E1
E1
B1
99
99
8D
8D
87
87
83
ENDCHAR
STARTCHAR O
ENCODING 79
SWIDTH 520 0
DWIDTH 10 0
BBX 9 11 0 0
BITMAP
3E00
4100
8100
8080
8080
8080
8080
8080
8100
4100
3E00
ENDCHAR
STARTCHAR P
ENCODING 80
SWIDTH 520 0
DWIDTH 10 0
BBX 8 11 0 0
BITMAP
FE
83
81
81
83
FC
80
80
80
80
80
ENDCHAR
STARTCHAR Q
ENCODING 81
SWIDTH 520 0
DWIDTH 10 0
BBX 9 14 0 -3
BITMAP
3E00
4100
8100
8080
8080
8080
8080
8080
4180
6300
3E00
0800
0C00
0780
ENDCHAR
STARTCHAR R
ENCODING 82
SWIDTH 520 0
DWIDTH 10 0
BBX 8 11 0 0
BITMAP
FC
83
81
81
83
FC
98
8C
84
86
83
ENDCHAR
STARTCHAR S
ENCODING 83
SWIDTH 520 0
DWIDTH 10 0
BBX 8 11 0 0
BITMAP
7D
83
81
C0
38
06
03
83
83
C2
BC
ENDCHAR
STARTCHAR T
ENCODING 84
SWIDTH 520 0
DWIDTH 11 0
BBX 9 11 0 0
BITMAP
FF80
8880
8880
8880
0800
0800
0800
0800
0800
0800
3E00
ENDCHAR
STARTCHAR U
ENCODING 85
SWIDTH 520 0
DWIDTH 10 0
BBX 8 11 0 0
BITMAP
81
81
81
81
81
81
81
81
81
42
3C
ENDCHAR
STARTCHAR V
ENCODING 86
SWIDTH 520 0
DWIDTH 10 0
BBX 10 11 -1 0
BITMAP
C0C0
4080
6080
2180
2100
3100
1300
1200
1A00
0C00
0C00
ENDCHAR
STARTCHAR W
ENCODING 87
SWIDTH 520 0
DWIDTH 10 0
BBX 10 11 -1 0
BITMAP
C0C0
40C0
4080
4C80
6C80
6C80
2D80
2B00
3300
3300
3300
ENDCHAR
STARTCHAR X
ENCODING 88
SWIDTH 520 0
DWIDTH 10 0
BBX 8 11 0 0
BITMAP
E7
62
24
34
18
18
18
34
24
62
E7
ENDCHAR
STARTCHAR Y
ENCODING 89
SWIDTH 520 0
DWIDTH 10 0
BBX 9 11 0 0
BITMAP
F780
2200
2200
1400
1400
0800
0800
0800
0800
0800
3E00
ENDCHAR
STARTCHAR Z
ENCODING 90
SWIDTH 520 0
DWIDTH 10 0
BBX 8 11 0 0
BITMAP
FF
82
86
84
08
18
30
21
61
C1
FF
ENDCHAR
STARTCHAR bracketleft
ENCODING 91
SWIDTH 520 0
DWIDTH 10 0
BBX 3 16 3 -3
BITMAP
E0
80
80
80
80
80
80
80
80
80
80
80
80
80
80
E0
ENDCHAR
STARTCHAR backslash
ENCODING 92
SWIDTH 520 0
DWIDTH 10 0
BBX 8 14 1 -2
BITMAP
80
40
40
20
20
10
10
08
08
04
04
02
02
01
ENDCHAR
STARTCHAR bracketright
ENCODING 93
SWIDTH 520 0
DWIDTH 10 0
BBX 3 16 2 -3
BITMAP
E0
20
20
20
20
20
20
20
20
20
20
20
20
20
20
E0
ENDCHAR
STARTCHAR asciicircum
ENCODING 94
SWIDTH 520 0
DWIDTH 10 0
BBX 8 6 0 5
BITMAP
18
3C
24
62
42
C1
ENDCHAR
STARTCHAR underscore
ENCODING 95
SWIDTH 520 0
DWIDTH 10 0
BBX 8 1 0 -2
BITMAP
FF
ENDCHAR
STARTCHAR grave
ENCODING 96
SWIDTH 520 0
DWIDTH 10 0
BBX 4 3 2 9
BITMAP
80
60
10
ENDCHAR
STARTCHAR a
ENCODING 97
SWIDTH 520 0
DWIDTH 10 0
BBX 8 8 0 0
BITMAP
3E
43
01
3F
C1
81
83
7D
ENDCHAR
STARTCHAR b
ENCODING 98
SWIDTH 520 0
DWIDTH 10 0
BBX 8 11 0 0
BITMAP
80
80
80
BC
C2
81
81
81
81
C2
FC
ENDCHAR
STARTCHAR c
ENCODING 99
SWIDTH 520 0
DWIDTH 10 0
BBX 8 8 0 0
BITMAP
3D
43
81
80
80
80
43
3E
ENDCHAR
STARTCHAR d
ENCODING 100
SWIDTH 520 0
DWIDTH 10 0
BBX 8 11 0 0
BITMAP
07
01
01
3D
43
81
81
81
81
43
3D
ENDCHAR
STARTCHAR e
ENCODING 101
SWIDTH 520 0
DWIDTH 10 0
BBX 8 8 0 0
BITMAP
3C
43
81
FF
80
C0
43
3E
ENDCHAR
STARTCHAR f
ENCODING 102
SWIDTH 520 0
DWIDTH 10 0
BBX 7 11 2 0
BITMAP
1E
20
20
FE
20
20
20
20
20
20
F8
ENDCHAR
STARTCHAR g
ENCODING 103
SWIDTH 520 0
DWIDTH 10 0
BBX 8 11 0 -3
BITMAP
3F
43
81
81
81
81
43
3D
01
C3
3C
ENDCHAR
STARTCHAR h
ENCODING 104
SWIDTH 520 0
DWIDTH 10 0
BBX 8 11 0 0
BITMAP
80
80
80
9E
E3
C1
81
81
81
81
81
ENDCHAR
STARTCHAR i
ENCODING 105
SWIDTH 520 0
DWIDTH 10 0
BBX 5 11 2 0
BITMAP
20
20
00
E0
20
20
20
20
20
20
F8
ENDCHAR
STARTCHAR j
ENCODING 106
SWIDTH 520 0
DWIDTH 10 0
BBX 6 14 0 -3
BITMAP
04
04
00
1C
04
04
04
04
04
04
04
04
8C
78
ENDCHAR
STARTCHAR k
ENCODING 107
SWIDTH 520 0
DWIDTH 10 0
BBX 8 11 1 0
BITMAP
80
80
80
86
8C
98
B0
D0
88
8C
87
ENDCHAR
STARTCHAR l
ENCODING 108
SWIDTH 520 0
DWIDTH 10 0
BBX 5 11 2 0
BITMAP
E0
20
20
20
20
20
20
20
20
20
F8
ENDCHAR
STARTCHAR m
ENCODING 109
SWIDTH 520 0
DWIDTH 11 0
BBX 9 8 0 0
BITMAP
BB00
CC80
8880
8880
8880
8880
8880
8880
ENDCHAR
STARTCHAR n
ENCODING 110
SWIDTH 520 0
DWIDTH 10 0
BBX 8 8 0 0
BITMAP
9E
E3
C1
81
81
81
81
81
ENDCHAR
STARTCHAR o
ENCODING 111
SWIDTH 520 0
DWIDTH 10 0
BBX 9 8 0 0
BITMAP
3E00
4100
8080
8080
8080
8080
4100
3E00
ENDCHAR
STARTCHAR p
ENCODING 112
SWIDTH 520 0
DWIDTH 10 0
BBX 8 11 0 -3
BITMAP
BC
C2
81
81
81
81
C2
FC
80
80
80
ENDCHAR
STARTCHAR q
ENCODING 113
SWIDTH 520 0
DWIDTH 10 0
BBX 8 11 0 -3
BITMAP
3D
43
81
81
81
81
43
3D
01
01
01
ENDCHAR
STARTCHAR r
ENCODING 114
SWIDTH 520 0
DWIDTH 10 0
BBX 8 8 0 0
BITMAP
EF
30
20
20
20
20
20
F8
ENDCHAR
STARTCHAR s
ENCODING 115
SWIDTH 520 0
DWIDTH 10 0
BBX 8 8 0 0
BITMAP
7C
82
80
7C
03
01
41
BE
ENDCHAR
STARTCHAR t
ENCODING 116
SWIDTH 520 0
DWIDTH 10 0
BBX 8 11 0 0
BITMAP
20
20
20
FE
20
20
20
20
21
31
1E
ENDCHAR
STARTCHAR u
ENCODING 117
SWIDTH 520 0
DWIDTH 10 0
BBX 8 8 0 0
BITMAP
81
81
81
81
81
83
C5
79
ENDCHAR
STARTCHAR v
ENCODING 118
SWIDTH 520 0
DWIDTH 10 0
BBX 9 8 0 0
BITMAP
8180
C300
4200
6200
2600
2400
1C00
1800
ENDCHAR
STARTCHAR w
ENCODING 119
SWIDTH 520 0
DWIDTH 10 0
BBX 9 8 0 0
BITMAP
9980
9900
D900
5900
5700
6600
6600
6600
ENDCHAR
STARTCHAR x
ENCODING 120
SWIDTH 520 0
DWIDTH 10 0
BBX 8 8 0 0
BITMAP
E7
26
34
18
18
34
66
E7
ENDCHAR
STARTCHAR y
ENCODING 121
SWIDTH 520 0
DWIDTH 10 0
BBX 9 11 0 -3
BITMAP
8180
C300
4200
6200
2400
2400
1C00
1800
1800
1000
E000
ENDCHAR
STARTCHAR z
ENCODING 122
SWIDTH 520 0
DWIDTH 10 0
BBX 8 8 0 0
BITMAP
FF
82
84
08
10
21
41
FF
ENDCHAR
STARTCHAR braceleft
ENCODING 123
SWIDTH 520 0
DWIDTH 10 0
BBX 5 16 1 -3
BITMAP
18
20
20
20
20
20
20
20
C0
20
20
20
20
20
20
18
ENDCHAR
STARTCHAR bar
ENCODING 124
SWIDTH 520 0
DWIDTH 10 0
BBX 1 15 4 -2
BITMAP
80
80
80
80
80
80
80
80
80
80
80
80
80
80
80
ENDCHAR
STARTCHAR braceright
ENCODING 125
SWIDTH 520 0
DWIDTH 10 0
BBX 5 16 2 -3
BITMAP
C0
20
20
20
20
20
20
20
18
30
20
20
20
20
20
C0
ENDCHAR
STARTCHAR asciitilde
ENCODING 126
SWIDTH 520 0
DWIDTH 10 0
BBX 8 4 0 2
BITMAP
71
D9
8B
86
ENDCHAR
STARTCHAR uni00A0
ENCODING 160
SWIDTH 520 0
DWIDTH 10 0
BBX 1 1 0 0
BITMAP
00
ENDCHAR
STARTCHAR exclamdown
ENCODING 161
SWIDTH 520 0
DWIDTH 10 0
BBX 1 11 5 0
BITMAP
80
80
00
80
80
80
80
80
80
80
80
ENDCHAR
STARTCHAR cent
ENCODING 162
SWIDTH 520 0
DWIDTH 10 0
BBX 8 11 0 0
BITMAP
08
3E
69
88
88
88
88
49
3F
0C
08
ENDCHAR
STARTCHAR sterling
ENCODING 163
SWIDTH 520 0
DWIDTH 10 0
BBX 9 11 0 0
BITMAP
1C00
2200
2000
2000
2000
F800
2000
2000
2100
2380
FE00
ENDCHAR
STARTCHAR currency
ENCODING 164
SWIDTH 520 0
DWIDTH 10 0
BBX 9 9 0 1
BITMAP
BE80
4100
8080
8080
8080
8080
8080
4100
BE80
ENDCHAR
STARTCHAR yen
ENCODING 165
SWIDTH 520 0
DWIDTH 10 0
BBX 9 11 0 0
BITMAP
4100
2200
2200
F780
1400
0800
FF80
0800
0800
0800
0800
ENDCHAR
STARTCHAR brokenbar
ENCODING 166
SWIDTH 520 0
DWIDTH 10 0
BBX 1 15 4 -2
BITMAP
80
80
80
80
80
80
80
00
80
80
80
80
80
80
80
ENDCHAR
STARTCHAR section
ENCODING 167
SWIDTH 520 0
DWIDTH 10 0
BBX 8 17 0 -2
BITMAP
3C
42
41
40
60
38
4E
43
41
31
1F
06
01
01
C1
63
1E
ENDCHAR
STARTCHAR dieresis
ENCODING 168
SWIDTH 520 0
DWIDTH 10 0
BBX 4 1 2 10
BITMAP
90
ENDCHAR
STARTCHAR copyright
ENCODING 169
SWIDTH 520 0
DWIDTH 9 0
BBX 10 10 0 1
BITMAP
1E00
7F80
6280
A040
A040
A040
A240
5E80
6180
1E00
ENDCHAR
STARTCHAR ordfeminine
ENCODING 170
SWIDTH 520 0
DWIDTH 10 0
BBX 6 9 0 2
BITMAP
78
84
7C
84
8C
74
00
00
FC
ENDCHAR
STARTCHAR guillemotleft
ENCODING 171
SWIDTH 520 0
DWIDTH 10 0
BBX 7 6 0 1
BITMAP
22
34
48
D8
24
32
ENDCHAR
STARTCHAR logicalnot
ENCODING 172
SWIDTH 520 0
DWIDTH 10 0
BBX 8 5 0 0
BITMAP
FF
01
01
01
01
ENDCHAR
STARTCHAR uni00AD
ENCODING 173
SWIDTH 520 0
DWIDTH 10 0
BBX 8 1 0 4
BITMAP
FF
ENDCHAR
STARTCHAR registered
ENCODING 174
SWIDTH 520 0
DWIDTH 10 0
BBX 10 10 0 3
BITMAP
1E00
6180
5C80
9240
9240
9C40
9640
5280
6180
1E00
ENDCHAR
STARTCHAR macron
ENCODING 175
SWIDTH 520 0
DWIDTH 10 0
BBX 5 1 2 10
BITMAP
F8
ENDCHAR
STARTCHAR degree
ENCODING 176
SWIDTH 520 0
DWIDTH 10 0
BBX 7 6 0 7
BITMAP
38
C6
82
82
C6
38
ENDCHAR
STARTCHAR plusminus
ENCODING 177
SWIDTH 520 0
DWIDTH 10 0
BBX 9 11 0 -2
BITMAP
0800
0800
0800
0800
FF80
0800
0800
0800
0800
0000
FF00
ENDCHAR
STARTCHAR twosuperior
ENCODING 178
SWIDTH 520 0
DWIDTH 10 0
BBX 4 5 0 6
BITMAP
70
90
20
50
F0
ENDCHAR
STARTCHAR threesuperior
ENCODING 179
SWIDTH 520 0
DWIDTH 10 0
BBX 4 4 0 7
BITMAP
70
70
90
70
ENDCHAR
STARTCHAR acute
ENCODING 180
SWIDTH 520 0
DWIDTH 10 0
BBX 4 3 2 9
BITMAP
10
20
C0
ENDCHAR
STARTCHAR mu
ENCODING 181
SWIDTH 520 0
DWIDTH 10 0
BBX 8 11 0 -3
BITMAP
81
81
81
81
81
83
C3
FD
80
80
80
ENDCHAR
STARTCHAR paragraph
ENCODING 182
SWIDTH 520 0
DWIDTH 10 0
BBX 8 11 0 0
BITMAP
3F
C9
89
89
C9
3F
09
09
09
09
09
ENDCHAR
STARTCHAR periodcentered
ENCODING 183
SWIDTH 520 0
DWIDTH 10 0
BBX 2 2 3 3
BITMAP
C0
C0
ENDCHAR
STARTCHAR cedilla
ENCODING 184
SWIDTH 520 0
DWIDTH 10 0
BBX 3 3 2 -3
BITMAP
20
20
C0
ENDCHAR
STARTCHAR onesuperior
ENCODING 185
SWIDTH 520 0
DWIDTH 10 0
BBX 4 5 0 6
BITMAP
20
60
A0
20
70
ENDCHAR
STARTCHAR ordmasculine
ENCODING 186
SWIDTH 520 0
DWIDTH 10 0
BBX 7 9 0 2
BITMAP
7C
82
82
82
C6
7C
00
00
FE
ENDCHAR
STARTCHAR guillemotright
ENCODING 187
SWIDTH 520 0
DWIDTH 10 0
BBX 7 6 1 1
BITMAP
88
4C
26
36
4C
88
ENDCHAR
STARTCHAR onequarter
ENCODING 188
SWIDTH 520 0
DWIDTH 10 0
BBX 9 12 0 0
BITMAP
0080
2100
E300
2200
2400
7C00
0800
1100
3300
2500
4780
4380
ENDCHAR
STARTCHAR onehalf
ENCODING 189
SWIDTH 520 0
DWIDTH 10 0
BBX 8 12 0 0
BITMAP
01
22
E2
24
28
78
10
37
29
42
C5
8F
ENDCHAR
STARTCHAR threequarters
ENCODING 190
SWIDTH 520 0
DWIDTH 10 0
BBX 9 12 0 0
BITMAP
0080
6100
9300
2200
9400
7C00
0800
1100
3300
2500
4780
4380
ENDCHAR
STARTCHAR questiondown
ENCODING 191
SWIDTH 520 0
DWIDTH 10 0
BBX 6 11 2 0
BITMAP
10
10
00
10
10
20
40
80
84
8C
78
ENDCHAR
STARTCHAR Agrave
ENCODING 192
SWIDTH 520 0
DWIDTH 10 0
BBX 10 15 -1 0
BITMAP
1000
0C00
0200
0000
0C00
0C00
1A00
1200
1300
3100
2100
3F80
6080
4080
C0C0
ENDCHAR
STARTCHAR Aacute
ENCODING 193
SWIDTH 520 0
DWIDTH 10 0
BBX 10 15 -1 0
BITMAP
0200
0400
1800
0000
0C00
0C00
1A00
1200
1300
3100
2100
3F80
6080
4080
C0C0
ENDCHAR
STARTCHAR Acircumflex
ENCODING 194
SWIDTH 520 0
DWIDTH 10 0
BBX 10 15 -1 0
BITMAP
0400
0A00
3100
0000
0C00
0C00
1A00
1200
1300
3100
2100
3F80
6080
4080
C0C0
ENDCHAR
STARTCHAR Atilde
ENCODING 195
SWIDTH 520 0
DWIDTH 10 0
BBX 10 14 -1 0
BITMAP
1900
2700
0000
0C00
0C00
1A00
1200
1300
3100
2100
3F80
6080
4080
C0C0
ENDCHAR
STARTCHAR Adieresis
ENCODING 196
SWIDTH 520 0
DWIDTH 10 0
BBX 10 14 -1 0
BITMAP
1200
0000
0000
0C00
0C00
1A00
1200
1300
3100
2100
3F80
6080
4080
C0C0
ENDCHAR
STARTCHAR Aring
ENCODING 197
SWIDTH 520 0
DWIDTH 10 0
BBX 10 15 -1 0
BITMAP
0C00
1200
1200
1400
0C00
1E00
1E00
1200
3300
3300
2100
3F80
6180
4080
C0C0
ENDCHAR
STARTCHAR AE
ENCODING 198
SWIDTH 520 0
DWIDTH 10 0
BBX 8 11 0 0
BITMAP
1F
18
38
28
28
6E
48
78
C8
88
8F
ENDCHAR
STARTCHAR Ccedilla
ENCODING 199
SWIDTH 520 0
DWIDTH 10 0
BBX 8 14 0 -3
BITMAP
3D
43
81
81
80
80
80
80
81
43
3E
08
08
30
ENDCHAR
STARTCHAR Egrave
ENCODING 200
SWIDTH 520 0
DWIDTH 10 0
BBX 7 15 1 0
BITMAP
40
30
08
00
FE
80
80
80
80
FC
80
80
80
80
FE
ENDCHAR
STARTCHAR Eacute
ENCODING 201
SWIDTH 520 0
DWIDTH 10 0
BBX 7 15 1 0
BITMAP
08
10
60
00
FE
80
80
80
80
FC
80
80
80
80
FE
ENDCHAR
STARTCHAR Ecircumflex
ENCODING 202
SWIDTH 520 0
DWIDTH 10 0
BBX 7 15 1 0
BITMAP
10
28
C4
00
FE
80
80
80
80
FC
80
80
80
80
FE
ENDCHAR
STARTCHAR Edieresis
ENCODING 203
SWIDTH 520 0
DWIDTH 10 0
BBX 7 14 1 0
BITMAP
48
00
00
FE
80
80
80
80
FC
80
80
80
80
FE
ENDCHAR
STARTCHAR Igrave
ENCODING 204
SWIDTH 520 0
DWIDTH 10 0
BBX 5 15 2 0
BITMAP
80
60
10
00
F8
20
20
20
20
20
20
20
20
20
F8
ENDCHAR
STARTCHAR Iacute
ENCODING 205
SWIDTH 520 0
DWIDTH 10 0
BBX 5 15 2 0
BITMAP
10
20
C0
00
F8
20
20
20
20
20
20
20
20
20
F8
ENDCHAR
STARTCHAR Icircumflex
ENCODING 206
SWIDTH 520 0
DWIDTH 10 0
BBX 6 15 1 0
BITMAP
10
28
C4
00
7C
10
10
10
10
10
10
10
10
10
7C
ENDCHAR
STARTCHAR Idieresis
ENCODING 207
SWIDTH 520 0
DWIDTH 10 0
BBX 5 14 2 0
BITMAP
90
00
00
F8
20
20
20
20
20
20
20
20
20
F8
ENDCHAR
STARTCHAR Eth
ENCODING 208
SWIDTH 520 0
DWIDTH 10 0
BBX 10 11 -1 0
BITMAP
7E00
4180
4080
4040
4040
F040
4040
4040
4080
4180
7E00
ENDCHAR
STARTCHAR Ntilde
ENCODING 209
SWIDTH 520 0
DWIDTH 10 0
BBX 8 14 0 0
BITMAP
32
4E
00
C1
E1
E1
B1
99
99
8D
8D
87
87
83
ENDCHAR
STARTCHAR Ograve
ENCODING 210
SWIDTH 520 0
DWIDTH 10 0
BBX 9 15 0 0
BITMAP
2000
1800
0400
0000
3E00
4100
8100
8080
8080
8080
8080
8080
8100
4100
3E00
ENDCHAR
STARTCHAR Oacute
ENCODING 211
SWIDTH 520 0
DWIDTH 10 0
BBX 9 15 0 0
BITMAP
0400
0800
3000
0000
3E00
4100
8100
8080
8080
8080
8080
8080
8100
4100
3E00
ENDCHAR
STARTCHAR Ocircumflex
ENCODING 212
SWIDTH 520 0
DWIDTH 10 0
BBX 9 15 0 0
BITMAP
0800
1400
6200
0000
3E00
4100
8100
8080
8080
8080
8080
8080
8100
4100
3E00
ENDCHAR
STARTCHAR Otilde
ENCODING 213
SWIDTH 520 0
DWIDTH 10 0
BBX 9 14 0 0
BITMAP
3200
4E00
0000
3E00
4100
8100
8080
8080
8080
8080
8080
8100
4100
3E00
ENDCHAR
STARTCHAR Odieresis
ENCODING 214
SWIDTH 520 0
DWIDTH 10 0
BBX 9 14 0 0
BITMAP
2400
0000
0000
3E00
4100
8100
8080
8080
8080
8080
8080
8100
4100
3E00
ENDCHAR
STARTCHAR multiply
ENCODING 215
SWIDTH 520 0
DWIDTH 10 0
BBX 6 6 1 1
BITMAP
84
48
30
30
48
84
ENDCHAR
STARTCHAR Oslash
ENCODING 216
SWIDTH 520 0
DWIDTH 10 0
BBX 9 11 0 0
BITMAP
3E80
6380
4100
8280
8480
8880
9080
A080
4100
E300
BE00
ENDCHAR
STARTCHAR Ugrave
ENCODING 217
SWIDTH 520 0
DWIDTH 10 0
BBX 8 15 0 0
BITMAP
20
18
04
00
81
81
81
81
81
81
81
81
81
42
3C
ENDCHAR
STARTCHAR Uacute
ENCODING 218
SWIDTH 520 0
DWIDTH 10 0
BBX 8 15 0 0
BITMAP
04
08
30
00
81
81
81
81
81
81
81
81
81
42
3C
ENDCHAR
STARTCHAR Ucircumflex
ENCODING 219
SWIDTH 520 0
DWIDTH 10 0
BBX 8 15 0 0
BITMAP
08
14
62
00
81
81
81
81
81
81
81
81
81
42
3C
ENDCHAR
STARTCHAR Udieresis
ENCODING 220
SWIDTH 520 0
DWIDTH 10 0
BBX 8 14 0 0
BITMAP
24
00
00
81
81
81
81
81
81
81
81
81
42
3C
ENDCHAR
STARTCHAR Yacute
ENCODING 221
SWIDTH 520 0
DWIDTH 10 0
BBX 9 15 0 0
BITMAP
0400
0800
3000
0000
F780
2200
2200
1400
1400
0800
0800
0800
0800
0800
3E00
ENDCHAR
STARTCHAR Thorn
ENCODING 222
SWIDTH 520 0
DWIDTH 10 0
BBX 8 11 0 0
BITMAP
80
80
FC
83
81
81
83
FC
80
80
80
ENDCHAR
STARTCHAR germandbls
ENCODING 223
SWIDTH 520 0
DWIDTH 10 0
BBX 7 11 1 0
BITMAP
70
C8
88
88
90
90
8C
82
82
A2
BC
ENDCHAR
STARTCHAR agrave
ENCODING 224
SWIDTH 520 0
DWIDTH 10 0
BBX 8 12 0 0
BITMAP
20
18
04
00
3E
41
01
3F
C1
81
83
7D
ENDCHAR
STARTCHAR aacute
ENCODING 225
SWIDTH 520 0
DWIDTH 10 0
BBX 8 12 0 0
BITMAP
04
08
30
00
3E
41
01
3F
C1
81
83
7D
ENDCHAR
STARTCHAR acircumflex
ENCODING 226
SWIDTH 520 0
DWIDTH 10 0
BBX 8 12 0 0
BITMAP
08
14
62
00
3E
41
01
3F
C1
81
83
7D
ENDCHAR
STARTCHAR atilde
ENCODING 227
SWIDTH 520 0
DWIDTH 10 0
BBX 8 11 0 0
BITMAP
32
4E
00
3E
41
01
3F
C1
81
83
7D
ENDCHAR
STARTCHAR adieresis
ENCODING 228
SWIDTH 520 0
DWIDTH 10 0
BBX 8 11 0 0
BITMAP
24
00
00
3E
41
01
3F
C1
81
83
7D
ENDCHAR
STARTCHAR aring
ENCODING 229
SWIDTH 520 0
DWIDTH 10 0
BBX 8 13 0 0
BITMAP
18
24
24
18
00
3E
41
01
3F
C1
81
83
7D
ENDCHAR
STARTCHAR ae
ENCODING 230
SWIDTH 520 0
DWIDTH 10 0
BBX 9 8 0 0
BITMAP
7700
C900
0980
7980
8E00
8800
9980
7700
ENDCHAR
STARTCHAR ccedilla
ENCODING 231
SWIDTH 520 0
DWIDTH 10 0
BBX 8 11 0 -3
BITMAP
3D
43
81
80
80
80
43
3E
08
08
30
ENDCHAR
STARTCHAR egrave
ENCODING 232
SWIDTH 520 0
DWIDTH 10 0
BBX 8 12 0 0
BITMAP
20
18
04
00
3C
43
81
FF
80
C0
43
3E
ENDCHAR
STARTCHAR eacute
ENCODING 233
SWIDTH 520 0
DWIDTH 10 0
BBX 8 12 0 0
BITMAP
04
08
30
00
3C
43
81
FF
80
C0
43
3E
ENDCHAR
STARTCHAR ecircumflex
ENCODING 234
SWIDTH 520 0
DWIDTH 10 0
BBX 8 12 0 0
BITMAP
08
14
62
00
3C
43
81
FF
80
C0
43
3E
ENDCHAR
STARTCHAR edieresis
ENCODING 235
SWIDTH 520 0
DWIDTH 10 0
BBX 8 11 0 0
BITMAP
24
00
00
3C
43
81
FF
80
C0
43
3E
ENDCHAR
STARTCHAR igrave
ENCODING 236
SWIDTH 520 0
DWIDTH 10 0
BBX 5 12 2 0
BITMAP
80
60
10
00
E0
20
20
20
20
20
20
F8
ENDCHAR
STARTCHAR iacute
ENCODING 237
SWIDTH 520 0
DWIDTH 10 0
BBX 5 12 2 0
BITMAP
10
20
C0
00
E0
20
20
20
20
20
20
F8
ENDCHAR
STARTCHAR icircumflex
ENCODING 238
SWIDTH 520 0
DWIDTH 10 0
BBX 6 12 1 0
BITMAP
10
28
C4
00
70
10
10
10
10
10
10
7C
ENDCHAR
STARTCHAR idieresis
ENCODING 239
SWIDTH 520 0
DWIDTH 10 0
BBX 5 11 2 0
BITMAP
90
00
00
E0
20
20
20
20
20
20
F8
ENDCHAR
STARTCHAR eth
ENCODING 240
SWIDTH 520 0
DWIDTH 10 0
BBX 9 12 0 0
BITMAP
2600
1C00
1E00
3300
0100
1E80
6080
8080
8080
8080
C100
3E00
ENDCHAR
STARTCHAR ntilde
ENCODING 241
SWIDTH 520 0
DWIDTH 10 0
BBX 8 11 0 0
BITMAP
32
4E
00
9E
E3
C1
81
81
81
81
81
ENDCHAR
STARTCHAR ograve
ENCODING 242
SWIDTH 520 0
DWIDTH 10 0
BBX 9 12 0 0
BITMAP
2000
1800
0400
0000
3E00
4100
8080
8080
8080
8080
4100
3E00
ENDCHAR
STARTCHAR oacute
ENCODING 243
SWIDTH 520 0
DWIDTH 10 0
BBX 9 12 0 0
BITMAP
0400
0800
3000
0000
3E00
4100
8080
8080
8080
8080
4100
3E00
ENDCHAR
STARTCHAR ocircumflex
ENCODING 244
SWIDTH 520 0
DWIDTH 10 0
BBX 9 12 0 0
BITMAP
0800
1400
6200
0000
3E00
4100
8080
8080
8080
8080
4100
3E00
ENDCHAR
STARTCHAR otilde
ENCODING 245
SWIDTH 520 0
DWIDTH 10 0
BBX 9 11 0 0
BITMAP
3200
4E00
0000
3E00
4100
8080
8080
8080
8080
4100
3E00
ENDCHAR
STARTCHAR odieresis
ENCODING 246
SWIDTH 520 0
DWIDTH 10 0
BBX 9 11 0 0
BITMAP
2400
0000
0000
3E00
4100
8080
8080
8080
8080
4100
3E00
ENDCHAR
STARTCHAR divide
ENCODING 247
SWIDTH 520 0
DWIDTH 10 0
BBX 8 8 0 0
BITMAP
08
00
00
FF
00
00
00
08
ENDCHAR
STARTCHAR oslash
ENCODING 248
SWIDTH 520 0
DWIDTH 10 0
BBX 9 8 0 0
BITMAP
3E80
4380
8680
8C80
9880
F080
E100
BE00
ENDCHAR
STARTCHAR ugrave
ENCODING 249
SWIDTH 520 0
DWIDTH 10 0
BBX 8 12 0 0
BITMAP
20
18
04
00
81
81
81
81
81
83
C5
79
ENDCHAR
STARTCHAR uacute
ENCODING 250
SWIDTH 520 0
DWIDTH 10 0
BBX 8 12 0 0
BITMAP
04
08
30
00
81
81
81
81
81
83
C5
79
ENDCHAR
STARTCHAR ucircumflex
ENCODING 251
SWIDTH 520 0
DWIDTH 10 0
BBX 8 12 0 0
BITMAP
08
14
62
00
81
81
81
81
81
83
C5
79
ENDCHAR
STARTCHAR udieresis
ENCODING 252
SWIDTH 520 0
DWIDTH 10 0
BBX 8 11 0 0
BITMAP
24
00
00
81
81
81
81
81
83
C5
79
ENDCHAR
STARTCHAR yacute
ENCODING 253
SWIDTH 520 0
DWIDTH 10 0
BBX 9 15 0 -3
BITMAP
0400
0800
3000
0000
8180
C300
4200
6200
2400
2400
1C00
1800
1800
1000
E000
ENDCHAR
STARTCHAR thorn
ENCODING 254
SWIDTH 520 0
DWIDTH 10 0
BBX 8 14 0 -3
BITMAP
80
80
80
BC
C2
81
81
81
81
C2
FC
80
80
80
ENDCHAR
STARTCHAR ydieresis
ENCODING 255
SWIDTH 520 0
DWIDTH 10 0
BBX 9 14 0 -3
BITMAP
2400
0000
0000
8180
C300
4200
6200
2400
2400
1C00
1800
1800
1000
E000
ENDCHAR
STARTCHAR Amacron
ENCODING 256
SWIDTH 520 0
DWIDTH 10 0
BBX 10 14 -1 0
BITMAP
1F00
0000
0000
0C00
0C00
1A00
1200
1300
3100
2100
3F80
6080
4080
C0C0
ENDCHAR
STARTCHAR amacron
ENCODING 257
SWIDTH 520 0
DWIDTH 10 0
BBX 8 11 0 0
BITMAP
3E
00
00
3E
41
01
3F
C1
81
83
7D
ENDCHAR
STARTCHAR Abreve
ENCODING 258
SWIDTH 520 0
DWIDTH 10 0
BBX 10 14 -1 0
BITMAP
1F00
0000
0000
0C00
0C00
1A00
1200
1300
3100
2100
3F80
6080
4080
C0C0
ENDCHAR
STARTCHAR abreve
ENCODING 259
SWIDTH 520 0
DWIDTH 10 0
BBX 8 11 0 0
BITMAP
3E
00
00
3E
41
01
3F
C1
81
83
7D
ENDCHAR
STARTCHAR Aogonek
ENCODING 260
SWIDTH 520 0
DWIDTH 11 0
BBX 11 14 0 -3
BITMAP
0C00
1C00
1400
2600
2600
2300
4300
7F00
4180
4080
C080
0080
0080
0060
ENDCHAR
STARTCHAR aogonek
ENCODING 261
SWIDTH 520 0
DWIDTH 10 0
BBX 9 11 0 -3
BITMAP
7C00
8600
0200
7E00
8200
8200
8600
7A00
0200
0200
0180
ENDCHAR
STARTCHAR Cacute
ENCODING 262
SWIDTH 520 0
DWIDTH 10 0
BBX 8 15 0 0
BITMAP
04
08
30
00
3D
43
81
81
80
80
80
80
81
42
3C
ENDCHAR
STARTCHAR cacute
ENCODING 263
SWIDTH 520 0
DWIDTH 10 0
BBX 8 12 0 0
BITMAP
04
08
30
00
3D
43
81
80
80
80
43
3E
ENDCHAR
STARTCHAR Ccircumflex
ENCODING 264
SWIDTH 520 0
DWIDTH 10 0
BBX 8 15 0 0
BITMAP
08
14
62
00
3D
43
81
81
80
80
80
80
81
42
3C
ENDCHAR
STARTCHAR ccircumflex
ENCODING 265
SWIDTH 520 0
DWIDTH 10 0
BBX 8 12 0 0
BITMAP
08
14
62
00
3D
43
81
80
80
80
43
3E
ENDCHAR
STARTCHAR Cdotaccent
ENCODING 266
SWIDTH 520 0
DWIDTH 10 0
BBX 8 14 0 0
BITMAP
08
00
00
3D
43
81
81
80
80
80
80
81
42
3C
ENDCHAR
STARTCHAR cdotaccent
ENCODING 267
SWIDTH 520 0
DWIDTH 10 0
BBX 8 11 0 0
BITMAP
08
00
00
3D
43
81
80
80
80
43
3E
ENDCHAR
STARTCHAR Ccaron
ENCODING 268
SWIDTH 520 0
DWIDTH 10 0
BBX 8 15 0 0
BITMAP
22
74
08
00
3D
43
81
81
80
80
80
80
81
42
3C
ENDCHAR
STARTCHAR ccaron
ENCODING 269
SWIDTH 520 0
DWIDTH 10 0
BBX 8 12 0 0
BITMAP
22
74
08
00
3D
43
81
80
80
80
43
3E
ENDCHAR
STARTCHAR Dcaron
ENCODING 270
SWIDTH 520 0
DWIDTH 10 0
BBX 9 15 0 0
BITMAP
2200
7400
0800
0000
FC00
8300
8100
8080
8080
8080
8080
8080
8100
8300
FC00
ENDCHAR
STARTCHAR dcaron
ENCODING 271
SWIDTH 520 0
DWIDTH 10 0
BBX 9 11 0 0
BITMAP
0E80
0280
0280
3E80
4600
8200
8200
8200
8200
4200
3E00
ENDCHAR
STARTCHAR Dcroat
ENCODING 272
SWIDTH 520 0
DWIDTH 10 0
BBX 10 11 -1 0
BITMAP
7E00
4180
4080
4040
4040
F040
4040
4040
4080
4180
7E00
ENDCHAR
STARTCHAR dcroat
ENCODING 273
SWIDTH 520 0
DWIDTH 10 0
BBX 10 11 0 0
BITMAP
0100
07C0
0100
3F00
4300
8100
8100
8100
8100
4300
3D00
ENDCHAR
STARTCHAR Emacron
ENCODING 274
SWIDTH 520 0
DWIDTH 10 0
BBX 7 14 1 0
BITMAP
7C
00
00
FE
80
80
80
80
FC
80
80
80
80
FE
ENDCHAR
STARTCHAR emacron
ENCODING 275
SWIDTH 520 0
DWIDTH 10 0
BBX 8 11 0 0
BITMAP
3E
00
00
3C
43
81
FF
80
C0
43
3E
ENDCHAR
STARTCHAR Ebreve
ENCODING 276
SWIDTH 520 0
DWIDTH 10 0
BBX 7 14 1 0
BITMAP
7C
00
00
FE
80
80
80
80
FC
80
80
80
80
FE
ENDCHAR
STARTCHAR ebreve
ENCODING 277
SWIDTH 520 0
DWIDTH 10 0
BBX 8 11 0 0
BITMAP
3E
00
00
3C
43
81
FF
80
C0
43
3E
ENDCHAR
STARTCHAR Edotaccent
ENCODING 278
SWIDTH 520 0
DWIDTH 10 0
BBX 7 14 1 0
BITMAP
10
00
00
FE
80
80
80
80
FC
80
80
80
80
FE
ENDCHAR
STARTCHAR edotaccent
ENCODING 279
SWIDTH 520 0
DWIDTH 10 0
BBX 8 11 0 0
BITMAP
08
00
00
3C
43
81
FF
80
C0
43
3E
ENDCHAR
STARTCHAR Eogonek
ENCODING 280
SWIDTH 520 0
DWIDTH 10 0
BBX 9 14 1 -3
BITMAP
FE00
8000
8000
8000
8000
FC00
8000
8000
8000
8000
FE00
0200
0200
0180
ENDCHAR
STARTCHAR eogonek
ENCODING 281
SWIDTH 520 0
DWIDTH 10 0
BBX 8 11 1 -3
BITMAP
3C
C6
83
FF
80
80
C3
3C
08
08
06
ENDCHAR
STARTCHAR Ecaron
ENCODING 282
SWIDTH 520 0
DWIDTH 10 0
BBX 7 15 1 0
BITMAP
44
E8
10
00
FE
80
80
80
80
FC
80
80
80
80
FE
ENDCHAR
STARTCHAR ecaron
ENCODING 283
SWIDTH 520 0
DWIDTH 10 0
BBX 8 12 0 0
BITMAP
22
74
08
00
3C
43
81
FF
80
C0
43
3E
ENDCHAR
STARTCHAR Gcircumflex
ENCODING 284
SWIDTH 520 0
DWIDTH 10 0
BBX 8 15 0 0
BITMAP
08
14
62
00
3D
43
81
81
80
8F
81
81
82
46
3C
ENDCHAR
STARTCHAR gcircumflex
ENCODING 285
SWIDTH 520 0
DWIDTH 10 0
BBX 8 15 0 -3
BITMAP
08
14
62
00
3F
43
81
81
81
81
43
3D
01
C3
3C
ENDCHAR
STARTCHAR Gbreve
ENCODING 286
SWIDTH 520 0
DWIDTH 10 0
BBX 8 14 0 0
BITMAP
3E
00
00
3D
43
81
81
80
8F
81
81
82
46
3C
ENDCHAR
STARTCHAR gbreve
ENCODING 287
SWIDTH 520 0
DWIDTH 10 0
BBX 8 14 0 -3
BITMAP
3E
00
00
3F
43
81
81
81
81
43
3D
01
C3
3C
ENDCHAR
STARTCHAR Gdotaccent
ENCODING 288
SWIDTH 520 0
DWIDTH 10 0
BBX 8 14 0 0
BITMAP
08
00
00
3D
43
81
81
80
8F
81
81
82
46
3C
ENDCHAR
STARTCHAR gdotaccent
ENCODING 289
SWIDTH 520 0
DWIDTH 10 0
BBX 8 14 0 -3
BITMAP
08
00
00
3F
43
81
81
81
81
43
3D
01
C3
3C
ENDCHAR
STARTCHAR Gcommaaccent
ENCODING 290
SWIDTH 520 0
DWIDTH 10 0
BBX 8 14 0 -3
BITMAP
3D
43
81
81
80
8F
81
81
82
46
3C
00
18
10
ENDCHAR
STARTCHAR gcommaaccent
ENCODING 291
SWIDTH 520 0
DWIDTH 10 0
BBX 8 16 0 -3
BITMAP
04
08
18
00
00
3F
43
81
81
81
81
43
3D
01
C3
3C
ENDCHAR
STARTCHAR Hcircumflex
ENCODING 292
SWIDTH 520 0
DWIDTH 10 0
BBX 8 15 0 0
BITMAP
08
14
62
00
81
81
81
81
81
FF
81
81
81
81
81
ENDCHAR
STARTCHAR hcircumflex
ENCODING 293
SWIDTH 520 0
DWIDTH 10 0
BBX 8 15 0 0
BITMAP
08
14
62
00
80
80
80
9E
E3
C1
81
81
81
81
81
ENDCHAR
STARTCHAR Hbar
ENCODING 294
SWIDTH 520 0
DWIDTH 10 0
BBX 12 11 -2 0
BITMAP
2040
FFF0
2040
2040
2040
3FC0
2040
2040
2040
2040
2040
ENDCHAR
STARTCHAR hbar
ENCODING 295
SWIDTH 520 0
DWIDTH 10 0
BBX 10 11 -2 0
BITMAP
2000
F800
2000
2780
38C0
3040
2040
2040
2040
2040
2040
ENDCHAR
STARTCHAR Itilde
ENCODING 296
SWIDTH 520 0
DWIDTH 10 0
BBX 6 14 1 0
BITMAP
64
9C
00
7C
10
10
10
10
10
10
10
10
10
7C
ENDCHAR
STARTCHAR itilde
ENCODING 297
SWIDTH 520 0
DWIDTH 10 0
BBX 6 11 1 0
BITMAP
64
9C
00
70
10
10
10
10
10
10
7C
ENDCHAR
STARTCHAR Imacron
ENCODING 298
SWIDTH 520 0
DWIDTH 10 0
BBX 5 14 2 0
BITMAP
F8
00
00
F8
20
20
20
20
20
20
20
20
20
F8
ENDCHAR
STARTCHAR imacron
ENCODING 299
SWIDTH 520 0
DWIDTH 10 0
BBX 5 11 2 0
BITMAP
F8
00
00
E0
20
20
20
20
20
20
F8
ENDCHAR
STARTCHAR Ibreve
ENCODING 300
SWIDTH 520 0
DWIDTH 10 0
BBX 5 14 2 0
BITMAP
F8
00
00
F8
20
20
20
20
20
20
20
20
20
F8
ENDCHAR
STARTCHAR ibreve
ENCODING 301
SWIDTH 520 0
DWIDTH 10 0
BBX 5 11 2 0
BITMAP
F8
00
00
E0
20
20
20
20
20
20
F8
ENDCHAR
STARTCHAR Iogonek
ENCODING 302
SWIDTH 520 0
DWIDTH 10 0
BBX 6 14 2 -3
BITMAP
F8
20
20
20
20
20
20
20
20
20
F0
10
10
0C
ENDCHAR
STARTCHAR iogonek
ENCODING 303
SWIDTH 520 0
DWIDTH 10 0
BBX 6 14 2 -3
BITMAP
20
20
00
E0
20
20
20
20
20
20
F0
10
10
0C
ENDCHAR
STARTCHAR Idotaccent
ENCODING 304
SWIDTH 520 0
DWIDTH 10 0
BBX 5 14 2 0
BITMAP
20
00
00
F8
20
20
20
20
20
20
20
20
20
F8
ENDCHAR
STARTCHAR dotlessi
ENCODING 305
SWIDTH 520 0
DWIDTH 10 0
BBX 5 8 2 0
BITMAP
E0
20
20
20
20
20
20
F8
ENDCHAR
STARTCHAR IJ
ENCODING 306
SWIDTH 520 0
DWIDTH 10 0
BBX 8 14 0 -3
BITMAP
F9
21
21
21
21
21
21
21
21
21
F9
01
22
7E
ENDCHAR
STARTCHAR ij
ENCODING 307
SWIDTH 520 0
DWIDTH 10 0
BBX 8 14 0 -3
BITMAP
21
00
00
E7
21
21
21
21
21
21
F9
01
21
1E
ENDCHAR
STARTCHAR Jcircumflex
ENCODING 308
SWIDTH 520 0
DWIDTH 10 0
BBX 8 15 0 0
BITMAP
08
14
62
00
01
01
01
01
01
01
01
01
C1
62
3C
ENDCHAR
STARTCHAR jcircumflex
ENCODING 309
SWIDTH 520 0
DWIDTH 10 0
BBX 8 15 0 -3
BITMAP
08
1E
21
00
1C
04
04
04
04
04
04
04
04
8C
78
ENDCHAR
STARTCHAR Kcommaaccent
ENCODING 310
SWIDTH 520 0
DWIDTH 10 0
BBX 8 14 1 -3
BITMAP
87
84
88
90
A0
F0
90
88
8C
84
82
01
30
20
ENDCHAR
STARTCHAR kcommaaccent
ENCODING 311
SWIDTH 520 0
DWIDTH 10 0
BBX 8 14 1 -3
BITMAP
80
80
80
86
8C
98
B0
D0
88
8C
86
01
30
20
ENDCHAR
STARTCHAR kgreenlandic
ENCODING 312
SWIDTH 520 0
DWIDTH 10 0
BBX 8 8 1 0
BITMAP
86
8C
98
A0
D0
88
8C
87
ENDCHAR
STARTCHAR Lacute
ENCODING 313
SWIDTH 520 0
DWIDTH 10 0
BBX 7 15 1 0
BITMAP
08
10
60
00
80
80
80
80
80
80
80
80
80
80
FE
ENDCHAR
STARTCHAR lacute
ENCODING 314
SWIDTH 520 0
DWIDTH 10 0
BBX 5 15 2 0
BITMAP
10
20
C0
00
E0
20
20
20
20
20
20
20
20
20
F8
ENDCHAR
STARTCHAR Lcommaaccent
ENCODING 315
SWIDTH 520 0
DWIDTH 10 0
BBX 7 14 1 -3
BITMAP
80
80
80
80
80
80
80
80
80
80
FE
00
30
20
ENDCHAR
STARTCHAR lcommaaccent
ENCODING 316
SWIDTH 520 0
DWIDTH 10 0
BBX 5 14 2 -3
BITMAP
E0
20
20
20
20
20
20
20
20
20
F8
00
60
40
ENDCHAR
STARTCHAR Lcaron
ENCODING 317
SWIDTH 520 0
DWIDTH 10 0
BBX 7 12 1 0
BITMAP
0C
8C
8C
88
80
80
80
80
80
80
80
FE
ENDCHAR
STARTCHAR lcaron
ENCODING 318
SWIDTH 520 0
DWIDTH 10 0
BBX 6 12 2 0
BITMAP
04
E4
24
24
20
20
20
20
20
20
20
F8
ENDCHAR
STARTCHAR Ldot
ENCODING 319
SWIDTH 520 0
DWIDTH 10 0
BBX 7 11 1 0
BITMAP
80
80
80
80
8C
8C
80
80
80
80
FE
ENDCHAR
STARTCHAR ldot
ENCODING 320
SWIDTH 520 0
DWIDTH 10 0
BBX 8 11 2 0
BITMAP
E0
20
20
20
20
20
23
23
20
20
F8
ENDCHAR
STARTCHAR Lslash
ENCODING 321
SWIDTH 520 0
DWIDTH 10 0
BBX 9 11 -1 0
BITMAP
2000
2000
2000
2000
2800
7000
A000
2000
2000
2000
3F80
ENDCHAR
STARTCHAR lslash
ENCODING 322
SWIDTH 520 0
DWIDTH 10 0
BBX 5 11 2 0
BITMAP
E0
20
20
20
28
70
A0
20
20
20
F8
ENDCHAR
STARTCHAR Nacute
ENCODING 323
SWIDTH 520 0
DWIDTH 10 0
BBX 8 15 0 0
BITMAP
04
08
30
00
C1
E1
E1
B1
99
99
8D
8D
87
87
83
ENDCHAR
STARTCHAR nacute
ENCODING 324
SWIDTH 520 0
DWIDTH 10 0
BBX 8 12 0 0
BITMAP
04
08
30
00
9E
E3
C1
81
81
81
81
81
ENDCHAR
STARTCHAR Ncommaaccent
ENCODING 325
SWIDTH 520 0
DWIDTH 10 0
BBX 8 14 0 -3
BITMAP
C1
E1
E1
B1
99
99
8D
8D
87
87
83
00
18
10
ENDCHAR
STARTCHAR ncommaaccent
ENCODING 326
SWIDTH 520 0
DWIDTH 10 0
BBX 8 11 0 -3
BITMAP
9E
E3
C1
81
81
81
81
81
00
18
10
ENDCHAR
STARTCHAR Ncaron
ENCODING 327
SWIDTH 520 0
DWIDTH 10 0
BBX 8 15 0 0
BITMAP
22
74
08
00
C1
E1
E1
B1
99
99
8D
8D
87
87
83
ENDCHAR
STARTCHAR ncaron
ENCODING 328
SWIDTH 520 0
DWIDTH 10 0
BBX 8 12 0 0
BITMAP
22
74
08
00
9E
E3
C1
81
81
81
81
81
ENDCHAR
STARTCHAR napostrophe
ENCODING 329
SWIDTH 520 0
DWIDTH 10 0
BBX 8 14 0 0
BITMAP
C0
80
80
80
00
00
9E
E3
C1
81
81
81
81
81
ENDCHAR
STARTCHAR Eng
ENCODING 330
SWIDTH 520 0
DWIDTH 10 0
BBX 8 14 0 -3
BITMAP
C1
E1
A1
B1
99
99
8D
85
87
83
81
01
22
3E
ENDCHAR
STARTCHAR eng
ENCODING 331
SWIDTH 520 0
DWIDTH 10 0
BBX 8 11 0 -3
BITMAP
9E
E3
C1
81
81
81
81
81
01
01
0E
ENDCHAR
STARTCHAR Omacron
ENCODING 332
SWIDTH 520 0
DWIDTH 10 0
BBX 9 14 0 0
BITMAP
3E00
0000
0000
3E00
4100
8100
8080
8080
8080
8080
8080
8100
4100
3E00
ENDCHAR
STARTCHAR omacron
ENCODING 333
SWIDTH 520 0
DWIDTH 10 0
BBX 9 11 0 0
BITMAP
3E00
0000
0000
3E00
4100
8080
8080
8080
8080
4100
3E00
ENDCHAR
STARTCHAR Obreve
ENCODING 334
SWIDTH 520 0
DWIDTH 10 0
BBX 9 14 0 0
BITMAP
3E00
0000
0000
3E00
4100
8100
8080
8080
8080
8080
8080
8100
4100
3E00
ENDCHAR
STARTCHAR obreve
ENCODING 335
SWIDTH 520 0
DWIDTH 10 0
BBX 9 11 0 0
BITMAP
3E00
0000
0000
3E00
4100
8080
8080
8080
8080
4100
3E00
ENDCHAR
STARTCHAR Ohungarumlaut
ENCODING 336
SWIDTH 520 0
DWIDTH 10 0
BBX 9 15 0 0
BITMAP
1300
3600
2400
4000
3E00
4100
8100
8080
8080
8080
8080
8080
8100
4100
3E00
ENDCHAR
STARTCHAR ohungarumlaut
ENCODING 337
SWIDTH 520 0
DWIDTH 10 0
BBX 9 12 0 0
BITMAP
1300
3600
2400
4000
3E00
4100
8080
8080
8080
8080
4100
3E00
ENDCHAR
STARTCHAR OE
ENCODING 338
SWIDTH 520 0
DWIDTH 10 0
BBX 8 11 0 0
BITMAP
7F
88
88
88
88
8F
88
88
88
98
7F
ENDCHAR
STARTCHAR oe
ENCODING 339
SWIDTH 520 0
DWIDTH 10 0
BBX 9 8 0 0
BITMAP
7700
9900
8980
8F80
8800
8800
9580
7700
ENDCHAR
STARTCHAR Racute
ENCODING 340
SWIDTH 520 0
DWIDTH 10 0
BBX 8 15 0 0
BITMAP
04
08
30
00
FC
83
81
81
83
FC
98
8C
84
86
83
ENDCHAR
STARTCHAR racute
ENCODING 341
SWIDTH 520 0
DWIDTH 10 0
BBX 8 12 0 0
BITMAP
04
08
30
00
EF
30
20
20
20
20
20
F8
ENDCHAR
STARTCHAR Rcommaaccent
ENCODING 342
SWIDTH 520 0
DWIDTH 10 0
BBX 8 14 0 -3
BITMAP
FC
83
81
81
83
FC
98
8C
84
86
83
00
18
10
ENDCHAR
STARTCHAR rcommaaccent
ENCODING 343
SWIDTH 520 0
DWIDTH 10 0
BBX 8 11 0 -3
BITMAP
EF
30
20
20
20
20
20
F8
00
18
10
ENDCHAR
STARTCHAR Rcaron
ENCODING 344
SWIDTH 520 0
DWIDTH 10 0
BBX 8 15 0 0
BITMAP
22
74
08
00
FC
83
81
81
83
FC
98
8C
84
86
83
ENDCHAR
STARTCHAR rcaron
ENCODING 345
SWIDTH 520 0
DWIDTH 10 0
BBX 8 12 0 0
BITMAP
22
74
08
00
EF
30
20
20
20
20
20
F8
ENDCHAR
STARTCHAR Sacute
ENCODING 346
SWIDTH 520 0
DWIDTH 10 0
BBX 8 15 0 0
BITMAP
04
08
30
00
7D
83
81
C0
38
06
03
83
83
C2
BC
ENDCHAR
STARTCHAR sacute
ENCODING 347
SWIDTH 520 0
DWIDTH 10 0
BBX 8 12 0 0
BITMAP
04
08
30
00
7C
82
80
7C
03
01
41
BE
ENDCHAR
STARTCHAR Scircumflex
ENCODING 348
SWIDTH 520 0
DWIDTH 10 0
BBX 8 15 0 0
BITMAP
08
14
62
00
7D
83
81
C0
38
06
03
83
83
C2
BC
ENDCHAR
STARTCHAR scircumflex
ENCODING 349
SWIDTH 520 0
DWIDTH 10 0
BBX 8 12 0 0
BITMAP
08
14
62
00
7C
82
80
7C
03
01
41
BE
ENDCHAR
STARTCHAR Scedilla
ENCODING 350
SWIDTH 520 0
DWIDTH 10 0
BBX 8 14 0 -3
BITMAP
3D
C3
81
80
60
3C
06
03
83
C3
BE
08
08
30
ENDCHAR
STARTCHAR scedilla
ENCODING 351
SWIDTH 520 0
DWIDTH 10 0
BBX 8 11 0 -3
BITMAP
7C
82
80
78
1E
01
81
7E
08
08
30
ENDCHAR
STARTCHAR Scaron
ENCODING 352
SWIDTH 520 0
DWIDTH 10 0
BBX 8 15 0 0
BITMAP
22
74
08
00
7D
83
81
C0
38
06
03
83
83
C2
BC
ENDCHAR
STARTCHAR scaron
ENCODING 353
SWIDTH 520 0
DWIDTH 10 0
BBX 8 12 0 0
BITMAP
22
74
08
00
7C
82
80
7C
03
01
41
BE
ENDCHAR
STARTCHAR Tcommaaccent
ENCODING 354
SWIDTH 520 0
DWIDTH 11 0
BBX 9 14 0 -3
BITMAP
FF80
8880
8880
8880
0800
0800
0800
0800
0800
0800
3E00
0000
1800
1000
ENDCHAR
STARTCHAR tcommaaccent
ENCODING 355
SWIDTH 520 0
DWIDTH 10 0
BBX 8 14 0 -3
BITMAP
20
20
20
FE
20
20
20
20
21
31
1E
00
18
10
ENDCHAR
STARTCHAR Tcaron
ENCODING 356
SWIDTH 520 0
DWIDTH 11 0
BBX 9 15 0 0
BITMAP
2200
7400
0800
0000
FF80
8880
8880
8880
0800
0800
0800
0800
0800
0800
3E00
ENDCHAR
STARTCHAR tcaron
ENCODING 357
SWIDTH 520 0
DWIDTH 10 0
BBX 8 13 0 0
BITMAP
01
01
21
21
20
FE
20
20
20
20
21
31
1E
ENDCHAR
STARTCHAR Tbar
ENCODING 358
SWIDTH 520 0
DWIDTH 11 0
BBX 9 11 0 0
BITMAP
FF80
8880
8880
8880
0800
3E00
0800
0800
0800
0800
3E00
ENDCHAR
STARTCHAR tbar
ENCODING 359
SWIDTH 520 0
DWIDTH 10 0
BBX 8 11 0 0
BITMAP
20
20
20
FE
20
20
F8
20
21
31
1E
ENDCHAR
STARTCHAR Utilde
ENCODING 360
SWIDTH 520 0
DWIDTH 10 0
BBX 8 14 0 0
BITMAP
32
4E
00
81
81
81
81
81
81
81
81
81
42
3C
ENDCHAR
STARTCHAR utilde
ENCODING 361
SWIDTH 520 0
DWIDTH 10 0
BBX 8 11 0 0
BITMAP
32
4E
00
81
81
81
81
81
83
C5
79
ENDCHAR
STARTCHAR Umacron
ENCODING 362
SWIDTH 520 0
DWIDTH 10 0
BBX 8 14 0 0
BITMAP
3E
00
00
81
81
81
81
81
81
81
81
81
42
3C
ENDCHAR
STARTCHAR umacron
ENCODING 363
SWIDTH 520 0
DWIDTH 10 0
BBX 8 11 0 0
BITMAP
3E
00
00
81
81
81
81
81
83
C5
79
ENDCHAR
STARTCHAR Ubreve
ENCODING 364
SWIDTH 520 0
DWIDTH 10 0
BBX 8 14 0 0
BITMAP
3E
00
00
81
81
81
81
81
81
81
81
81
42
3C
ENDCHAR
STARTCHAR ubreve
ENCODING 365
SWIDTH 520 0
DWIDTH 10 0
BBX 8 11 0 0
BITMAP
3E
00
00
81
81
81
81
81
83
C5
79
ENDCHAR
STARTCHAR Uring
ENCODING 366
SWIDTH 520 0
DWIDTH 10 0
BBX 8 16 0 0
BITMAP
18
24
24
18
00
81
81
81
81
81
81
81
81
81
42
3C
ENDCHAR
STARTCHAR uring
ENCODING 367
SWIDTH 520 0
DWIDTH 10 0
BBX 8 13 0 0
BITMAP
18
24
24
18
00
81
81
81
81
81
83
C5
79
ENDCHAR
STARTCHAR Uhungarumlaut
ENCODING 368
SWIDTH 520 0
DWIDTH 10 0
BBX 8 15 0 0
BITMAP
13
36
24
40
81
81
81
81
81
81
81
81
81
42
3C
ENDCHAR
STARTCHAR uhungarumlaut
ENCODING 369
SWIDTH 520 0
DWIDTH 10 0
BBX 8 12 0 0
BITMAP
13
36
24
40
81
81
81
81
81
83
C5
79
ENDCHAR
STARTCHAR Uogonek
ENCODING 370
SWIDTH 520 0
DWIDTH 10 0
BBX 7 14 1 -3
BITMAP
82
82
82
82
82
82
82
82
82
44
78
10
10
0C
ENDCHAR
STARTCHAR uogonek
ENCODING 371
SWIDTH 520 0
DWIDTH 10 0
BBX 8 11 1 -3
BITMAP
84
84
84
84
84
84
8C
74
04
04
03
ENDCHAR
STARTCHAR Wcircumflex
ENCODING 372
SWIDTH 520 0
DWIDTH 10 0
BBX 10 15 -1 0
BITMAP
0400
0A00
3100
0000
C0C0
40C0
4080
4C80
6C80
6C80
2D80
2B00
3300
3300
3300
ENDCHAR
STARTCHAR wcircumflex
ENCODING 373
SWIDTH 520 0
DWIDTH 10 0
BBX 9 12 0 0
BITMAP
0800
1400
6200
0000
9980
9900
D900
5900
5700
6600
6600
6600
ENDCHAR
STARTCHAR Ycircumflex
ENCODING 374
SWIDTH 520 0
DWIDTH 10 0
BBX 9 15 0 0
BITMAP
0800
1400
6200
0000
F780
2200
2200
1400
1400
0800
0800
0800
0800
0800
3E00
ENDCHAR
STARTCHAR ycircumflex
ENCODING 375
SWIDTH 520 0
DWIDTH 10 0
BBX 9 15 0 -3
BITMAP
0800
1400
6200
0000
8180
C300
4200
6200
2400
2400
1C00
1800
1800
1000
E000
ENDCHAR
STARTCHAR Ydieresis
ENCODING 376
SWIDTH 520 0
DWIDTH 10 0
BBX 9 14 0 0
BITMAP
2400
0000
0000
F780
2200
2200
1400
1400
0800
0800
0800
0800
0800
3E00
ENDCHAR
STARTCHAR Zacute
ENCODING 377
SWIDTH 520 0
DWIDTH 10 0
BBX 8 15 0 0
BITMAP
04
08
30
00
FF
82
86
84
08
18
30
21
61
C1
FF
ENDCHAR
STARTCHAR zacute
ENCODING 378
SWIDTH 520 0
DWIDTH 10 0
BBX 8 12 0 0
BITMAP
04
08
30
00
FF
82
84
08
10
21
41
FF
ENDCHAR
STARTCHAR Zdotaccent
ENCODING 379
SWIDTH 520 0
DWIDTH 10 0
BBX 8 14 0 0
BITMAP
08
00
00
FF
82
86
84
08
18
30
21
61
C1
FF
ENDCHAR
STARTCHAR zdotaccent
ENCODING 380
SWIDTH 520 0
DWIDTH 10 0
BBX 8 11 0 0
BITMAP
08
00
00
FF
82
84
08
10
21
41
FF
ENDCHAR
STARTCHAR Zcaron
ENCODING 381
SWIDTH 520 0
DWIDTH 10 0
BBX 8 15 0 0
BITMAP
22
74
08
00
FF
82
86
84
08
18
30
21
61
C1
FF
ENDCHAR
STARTCHAR zcaron
ENCODING 382
SWIDTH 520 0
DWIDTH 10 0
BBX 8 12 0 0
BITMAP
22
74
08
00
FF
82
84
08
10
21
41
FF
ENDCHAR
STARTCHAR longs
ENCODING 383
SWIDTH 520 0
DWIDTH 10 0
BBX 7 11 2 0
BITMAP
1E
20
20
E0
20
20
20
20
20
20
F8
ENDCHAR
STARTCHAR florin
ENCODING 402
SWIDTH 520 0
DWIDTH 10 0
BBX 8 14 1 -3
BITMAP
0F
10
10
7F
10
10
10
10
10
10
10
10
30
E0
ENDCHAR
STARTCHAR AEacute
ENCODING 508
SWIDTH 520 0
DWIDTH 10 0
BBX 8 15 0 0
BITMAP
04
08
30
00
1F
18
38
28
28
6E
48
78
C8
88
8F
ENDCHAR
STARTCHAR aeacute
ENCODING 509
SWIDTH 520 0
DWIDTH 10 0
BBX 9 12 0 0
BITMAP
0400
0800
3000
0000
7700
C900
0980
7980
8E00
8800
9980
7700
ENDCHAR
STARTCHAR Oslashacute
ENCODING 510
SWIDTH 520 0
DWIDTH 10 0
BBX 9 15 0 0
BITMAP
0400
0800
3000
0000
3E80
6380
4100
8280
8480
8880
9080
A080
4100
E300
BE00
ENDCHAR
STARTCHAR oslashacute
ENCODING 511
SWIDTH 520 0
DWIDTH 10 0
BBX 9 12 0 0
BITMAP
0400
0800
3000
0000
3E80
4380
8680
8C80
9880
F080
E100
BE00
ENDCHAR
STARTCHAR Scommaaccent
ENCODING 536
SWIDTH 520 0
DWIDTH 10 0
BBX 8 14 0 -3
BITMAP
7D
83
81
C0
38
06
03
83
83
C2
BC
00
18
10
ENDCHAR
STARTCHAR scommaaccent
ENCODING 537
SWIDTH 520 0
DWIDTH 10 0
BBX 8 11 0 -3
BITMAP
7C
82
80
7C
03
01
41
BE
00
18
10
ENDCHAR
STARTCHAR uni021A
ENCODING 538
SWIDTH 520 0
DWIDTH 11 0
BBX 9 14 0 -3
BITMAP
FF80
8880
8880
8880
0800
0800
0800
0800
0800
0800
3E00
0000
1800
1000
ENDCHAR
STARTCHAR uni021B
ENCODING 539
SWIDTH 520 0
DWIDTH 10 0
BBX 8 14 0 -3
BITMAP
20
20
20
FE
20
20
20
20
21
31
1E
00
18
10
ENDCHAR
STARTCHAR circumflex
ENCODING 710
SWIDTH 520 0
DWIDTH 10 0
BBX 6 3 1 9
BITMAP
10
28
C4
ENDCHAR
STARTCHAR caron
ENCODING 711
SWIDTH 520 0
DWIDTH 10 0
BBX 6 3 1 9
BITMAP
44
E8
10
ENDCHAR
STARTCHAR breve
ENCODING 728
SWIDTH 520 0
DWIDTH 10 0
BBX 5 1 2 10
BITMAP
F8
ENDCHAR
STARTCHAR dotaccent
ENCODING 729
SWIDTH 520 0
DWIDTH 10 0
BBX 1 1 4 10
BITMAP
80
ENDCHAR
STARTCHAR ring
ENCODING 730
SWIDTH 520 0
DWIDTH 10 0
BBX 4 4 2 9
BITMAP
60
90
90
60
ENDCHAR
STARTCHAR ogonek
ENCODING 731
SWIDTH 520 0
DWIDTH 10 0
BBX 2 3 7 -3
BITMAP
80
80
40
ENDCHAR
STARTCHAR tilde
ENCODING 732
SWIDTH 520 0
DWIDTH 10 0
BBX 6 2 1 9
BITMAP
64
9C
ENDCHAR
STARTCHAR hungarumlaut
ENCODING 733
SWIDTH 520 0
DWIDTH 10 0
BBX 7 3 1 9
BITMAP
26
6C
C8
ENDCHAR
STARTCHAR tonos
ENCODING 900
SWIDTH 520 0
DWIDTH 10 0
BBX 1 4 4 10
BITMAP
80
80
80
80
ENDCHAR
STARTCHAR dieresistonos
ENCODING 901
SWIDTH 520 0
DWIDTH 10 0
BBX 8 4 0 10
BITMAP
08
08
08
91
ENDCHAR
STARTCHAR Alphatonos
ENCODING 902
SWIDTH 520 0
DWIDTH 10 0
BBX 10 14 -1 0
BITMAP
6000
6000
4000
4C00
0C00
1A00
1200
1300
3100
2100
3F80
6080
4080
C0C0
ENDCHAR
STARTCHAR Epsilontonos
ENCODING 904
SWIDTH 520 0
DWIDTH 10 0
BBX 9 14 -1 0
BITMAP
8000
8000
8000
BF80
2000
2000
2000
2000
3F00
2000
2000
2000
2000
3F80
ENDCHAR
STARTCHAR Etatonos
ENCODING 905
SWIDTH 520 0
DWIDTH 10 0
BBX 9 14 -1 0
BITMAP
8000
8000
8000
C080
4080
4080
4080
4080
7F80
4080
4080
4080
4080
4080
ENDCHAR
STARTCHAR Iotatonos
ENCODING 906
SWIDTH 520 0
DWIDTH 10 0
BBX 7 14 0 0
BITMAP
C0
C0
80
BE
08
08
08
08
08
08
08
08
08
3E
ENDCHAR
STARTCHAR Omicrontonos
ENCODING 908
SWIDTH 520 0
DWIDTH 10 0
BBX 10 14 -1 0
BITMAP
8000
8000
8000
9F00
2080
4080
4040
4040
4040
4040
4040
4080
2080
1F00
ENDCHAR
STARTCHAR Upsilontonos
ENCODING 910
SWIDTH 520 0
DWIDTH 10 0
BBX 10 14 -1 0
BITMAP
8000
8000
8000
FBC0
1100
1100
0A00
0A00
0400
0400
0400
0400
0400
1F00
ENDCHAR
STARTCHAR Omegatonos
ENCODING 911
SWIDTH 520 0
DWIDTH 10 0
BBX 9 14 -1 0
BITMAP
8000
8000
8000
9E00
2100
4080
4080
4080
4080
4080
2180
3300
1200
7380
ENDCHAR
STARTCHAR iotadieresistonos
ENCODING 912
SWIDTH 520 0
DWIDTH 10 0
BBX 8 14 0 0
BITMAP
08
08
08
91
00
00
38
08
08
08
08
08
08
0E
ENDCHAR
STARTCHAR Alpha
ENCODING 913
SWIDTH 520 0
DWIDTH 10 0
BBX 10 11 -1 0
BITMAP
0C00
0C00
1A00
1200
1300
3100
2100
3F80
6080
4080
C0C0
ENDCHAR
STARTCHAR Beta
ENCODING 914
SWIDTH 520 0
DWIDTH 10 0
BBX 7 11 1 0
BITMAP
FC
82
82
82
FC
84
82
82
82
86
FC
ENDCHAR
STARTCHAR Gamma
ENCODING 915
SWIDTH 520 0
DWIDTH 10 0
BBX 8 11 1 0
BITMAP
FF
80
80
80
80
80
80
80
80
80
80
ENDCHAR
STARTCHAR uni0394
ENCODING 916
SWIDTH 520 0
DWIDTH 10 0
BBX 10 11 -1 0
BITMAP
0C00
0C00
1A00
1200
1300
3100
2100
2180
6080
4080
FFC0
ENDCHAR
STARTCHAR Epsilon
ENCODING 917
SWIDTH 520 0
DWIDTH 10 0
BBX 7 11 1 0
BITMAP
FE
80
80
80
80
FC
80
80
80
80
FE
ENDCHAR
STARTCHAR Zeta
ENCODING 918
SWIDTH 520 0
DWIDTH 10 0
BBX 8 11 0 0
BITMAP
FF
82
86
84
08
18
30
21
61
C1
FF
ENDCHAR
STARTCHAR Eta
ENCODING 919
SWIDTH 520 0
DWIDTH 10 0
BBX 8 11 0 0
BITMAP
81
81
81
81
81
FF
81
81
81
81
81
ENDCHAR
STARTCHAR Theta
ENCODING 920
SWIDTH 520 0
DWIDTH 10 0
BBX 9 11 0 0
BITMAP
3E00
4100
8100
8080
8080
BC80
8080
8080
8100
4100
3E00
ENDCHAR
STARTCHAR Iota
ENCODING 921
SWIDTH 520 0
DWIDTH 10 0
BBX 5 11 2 0
BITMAP
F8
20
20
20
20
20
20
20
20
20
F8
ENDCHAR
STARTCHAR Kappa
ENCODING 922
SWIDTH 520 0
DWIDTH 10 0
BBX 8 11 1 0
BITMAP
87
84
88
90
A0
F0
90
88
8C
84
83
ENDCHAR
STARTCHAR Lambda
ENCODING 923
SWIDTH 520 0
DWIDTH 10 0
BBX 10 11 -1 0
BITMAP
0C00
0C00
1A00
1200
1300
3100
2100
2180
6080
4080
C0C0
ENDCHAR
STARTCHAR Mu
ENCODING 924
SWIDTH 520 0
DWIDTH 10 0
BBX 8 11 0 0
BITMAP
C3
C3
E7
A5
AD
99
99
99
81
81
81
ENDCHAR
STARTCHAR Nu
ENCODING 925
SWIDTH 520 0
DWIDTH 10 0
BBX 8 11 0 0
BITMAP
C1
E1
E1
B1
99
99
8D
8D
87
87
83
ENDCHAR
STARTCHAR Xi
ENCODING 926
SWIDTH 520 0
DWIDTH 10 0
BBX 8 11 0 0
BITMAP
FF
81
81
00
00
3C
00
00
81
81
FF
ENDCHAR
STARTCHAR Omicron
ENCODING 927
SWIDTH 520 0
DWIDTH 10 0
BBX 9 11 0 0
BITMAP
3E00
4100
8100
8080
8080
8080
8080
8080
8100
4100
3E00
ENDCHAR
STARTCHAR Pi
ENCODING 928
SWIDTH 520 0
DWIDTH 10 0
BBX 8 11 0 0
BITMAP
FF
81
81
81
81
81
81
81
81
81
81
ENDCHAR
STARTCHAR Rho
ENCODING 929
SWIDTH 520 0
DWIDTH 10 0
BBX 8 11 0 0
BITMAP
FE
83
81
81
83
FC
80
80
80
80
80
ENDCHAR
STARTCHAR Sigma
ENCODING 931
SWIDTH 520 0
DWIDTH 10 0
BBX 7 11 1 0
BITMAP
FE
82
42
62
20
30
20
62
42
82
FE
ENDCHAR
STARTCHAR Tau
ENCODING 932
SWIDTH 520 0
DWIDTH 11 0
BBX 9 11 0 0
BITMAP
FF80
8880
8880
8880
0800
0800
0800
0800
0800
0800
3E00
ENDCHAR
STARTCHAR Upsilon
ENCODING 933
SWIDTH 520 0
DWIDTH 10 0
BBX 9 11 0 0
BITMAP
F780
2200
2200
1400
1400
0800
0800
0800
0800
0800
3E00
ENDCHAR
STARTCHAR Phi
ENCODING 934
SWIDTH 520 0
DWIDTH 10 0
BBX 8 11 0 0
BITMAP
08
1C
6A
89
89
89
89
49
7E
08
08
ENDCHAR
STARTCHAR Chi
ENCODING 935
SWIDTH 520 0
DWIDTH 10 0
BBX 8 11 0 0
BITMAP
E7
62
24
34
18
18
18
34
24
62
E7
ENDCHAR
STARTCHAR Psi
ENCODING 936
SWIDTH 520 0
DWIDTH 10 0
BBX 7 11 1 0
BITMAP
92
92
92
92
92
92
92
7C
10
10
10
ENDCHAR
STARTCHAR uni03A9
ENCODING 937
SWIDTH 520 0
DWIDTH 10 0
BBX 8 11 0 0
BITMAP
3C
42
81
81
81
81
81
43
66
24
E7
ENDCHAR
STARTCHAR Iotadieresis
ENCODING 938
SWIDTH 520 0
DWIDTH 10 0
BBX 5 14 2 0
BITMAP
90
00
00
F8
20
20
20
20
20
20
20
20
20
F8
ENDCHAR
STARTCHAR Upsilondieresis
ENCODING 939
SWIDTH 520 0
DWIDTH 10 0
BBX 9 14 0 0
BITMAP
2400
0000
0000
F780
2200
2200
1400
1400
0800
0800
0800
0800
0800
3E00
ENDCHAR
STARTCHAR alphatonos
ENCODING 940
SWIDTH 520 0
DWIDTH 10 0
BBX 8 14 0 0
BITMAP
08
08
08
10
00
00
39
4D
87
86
86
87
4D
39
ENDCHAR
STARTCHAR epsilontonos
ENCODING 941
SWIDTH 520 0
DWIDTH 10 0
BBX 7 14 0 0
BITMAP
08
08
08
10
00
00
7C
82
80
78
C0
80
82
7C
ENDCHAR
STARTCHAR etatonos
ENCODING 942
SWIDTH 520 0
DWIDTH 10 0
BBX 8 17 0 -3
BITMAP
08
08
08
10
00
00
EE
31
21
21
21
21
21
21
01
01
01
ENDCHAR
STARTCHAR iotatonos
ENCODING 943
SWIDTH 520 0
DWIDTH 10 0
BBX 5 14 2 0
BITMAP
20
20
20
40
00
00
E0
20
20
20
20
20
20
38
ENDCHAR
STARTCHAR upsilondieresistonos
ENCODING 944
SWIDTH 520 0
DWIDTH 10 0
BBX 8 14 0 0
BITMAP
08
08
08
91
00
00
81
81
81
81
81
81
C2
3C
ENDCHAR
STARTCHAR alpha
ENCODING 945
SWIDTH 520 0
DWIDTH 10 0
BBX 8 8 0 0
BITMAP
39
4D
87
86
86
87
4D
39
ENDCHAR
STARTCHAR beta
ENCODING 946
SWIDTH 520 0
DWIDTH 11 0
BBX 8 14 1 -3
BITMAP
3C
42
82
82
82
9C
83
81
81
C3
FC
80
80
80
ENDCHAR
STARTCHAR gamma
ENCODING 947
SWIDTH 520 0
DWIDTH 10 0
BBX 8 11 0 -3
BITMAP
C1
41
23
22
32
16
14
08
08
08
08
ENDCHAR
STARTCHAR delta
ENCODING 948
SWIDTH 520 0
DWIDTH 10 0
BBX 8 11 0 0
BITMAP
1C
22
20
18
24
42
81
81
81
42
3C
ENDCHAR
STARTCHAR epsilon
ENCODING 949
SWIDTH 520 0
DWIDTH 10 0
BBX 7 8 0 0
BITMAP
7C
82
80
78
C0
80
82
7C
ENDCHAR
STARTCHAR zeta
ENCODING 950
SWIDTH 520 0
DWIDTH 10 0
BBX 8 15 0 -4
BITMAP
7F
06
18
20
40
80
80
80
80
40
78
07
01
01
02
ENDCHAR
STARTCHAR eta
ENCODING 951
SWIDTH 520 0
DWIDTH 10 0
BBX 8 11 0 -3
BITMAP
EE
31
21
21
21
21
21
21
01
01
01
ENDCHAR
STARTCHAR theta
ENCODING 952
SWIDTH 520 0
DWIDTH 10 0
BBX 8 11 0 0
BITMAP
3C
42
83
81
81
FF
81
81
81
42
3C
ENDCHAR
STARTCHAR iota
ENCODING 953
SWIDTH 520 0
DWIDTH 10 0
BBX 5 8 2 0
BITMAP
E0
20
20
20
20
20
20
38
ENDCHAR
STARTCHAR kappa
ENCODING 954
SWIDTH 520 0
DWIDTH 10 0
BBX 8 8 1 0
BITMAP
86
8C
98
A0
D0
88
8C
87
ENDCHAR
STARTCHAR lambda
ENCODING 955
SWIDTH 520 0
DWIDTH 10 0
BBX 9 11 0 0
BITMAP
E000
1000
1800
1800
1C00
3400
2400
6200
4200
C300
8180
ENDCHAR
STARTCHAR uni03BC
ENCODING 956
SWIDTH 520 0
DWIDTH 10 0
BBX 9 11 0 -3
BITMAP
8200
8200
8200
8200
8200
8200
C600
FB00
8080
8000
8000
ENDCHAR
STARTCHAR nu
ENCODING 957
SWIDTH 520 0
DWIDTH 10 0
BBX 8 8 0 0
BITMAP
C3
43
42
62
26
34
1C
18
ENDCHAR
STARTCHAR xi
ENCODING 958
SWIDTH 520 0
DWIDTH 10 0
BBX 8 15 0 -4
BITMAP
7C
80
80
C0
3C
40
80
80
80
40
3E
01
01
01
02
ENDCHAR
STARTCHAR omicron
ENCODING 959
SWIDTH 520 0
DWIDTH 10 0
BBX 9 8 0 0
BITMAP
3E00
4100
8080
8080
8080
8080
4100
3E00
ENDCHAR
STARTCHAR pi
ENCODING 960
SWIDTH 520 0
DWIDTH 10 0
BBX 8 8 0 0
BITMAP
FF
24
24
24
24
24
24
23
ENDCHAR
STARTCHAR rho
ENCODING 961
SWIDTH 520 0
DWIDTH 10 0
BBX 8 11 0 -3
BITMAP
3C
42
81
81
81
81
C2
FC
80
80
80
ENDCHAR
STARTCHAR sigma1
ENCODING 962
SWIDTH 520 0
DWIDTH 10 0
BBX 8 12 0 -4
BITMAP
3E
43
80
80
80
80
40
3C
03
01
01
02
ENDCHAR
STARTCHAR sigma
ENCODING 963
SWIDTH 520 0
DWIDTH 10 0
BBX 9 8 0 0
BITMAP
3F80
4200
8100
8100
8100
8100
4200
3C00
ENDCHAR
STARTCHAR tau
ENCODING 964
SWIDTH 520 0
DWIDTH 10 0
BBX 9 8 0 0
BITMAP
FF80
0800
0800
0800
0800
0800
0800
0E00
ENDCHAR
STARTCHAR upsilon
ENCODING 965
SWIDTH 520 0
DWIDTH 10 0
BBX 8 8 0 0
BITMAP
81
81
81
81
81
81
C2
3C
ENDCHAR
STARTCHAR phi
ENCODING 966
SWIDTH 520 0
DWIDTH 9 0
BBX 8 11 0 -3
BITMAP
8E
CA
89
89
89
89
4A
3C
08
08
08
ENDCHAR
STARTCHAR chi
ENCODING 967
SWIDTH 520 0
DWIDTH 10 0
BBX 8 12 0 -4
BITMAP
C1
43
62
24
3C
18
18
1C
24
62
42
C1
ENDCHAR
STARTCHAR psi
ENCODING 968
SWIDTH 520 0
DWIDTH 10 0
BBX 7 13 1 -3
BITMAP
10
10
92
92
92
92
92
92
54
7C
10
10
10
ENDCHAR
STARTCHAR omega
ENCODING 969
SWIDTH 520 0
DWIDTH 9 0
BBX 8 8 0 0
BITMAP
81
89
89
89
89
89
99
76
ENDCHAR
STARTCHAR iotadieresis
ENCODING 970
SWIDTH 520 0
DWIDTH 10 0
BBX 5 11 2 0
BITMAP
90
00
00
E0
20
20
20
20
20
20
38
ENDCHAR
STARTCHAR upsilondieresis
ENCODING 971
SWIDTH 520 0
DWIDTH 10 0
BBX 8 11 0 0
BITMAP
24
00
00
81
81
81
81
81
81
C2
3C
ENDCHAR
STARTCHAR omicrontonos
ENCODING 972
SWIDTH 520 0
DWIDTH 10 0
BBX 9 14 0 0
BITMAP
0800
0800
0800
1000
0000
0000
3E00
4100
8080
8080
8080
8080
4100
3E00
ENDCHAR
STARTCHAR upsilontonos
ENCODING 973
SWIDTH 520 0
DWIDTH 10 0
BBX 8 14 0 0
BITMAP
08
08
08
10
00
00
81
81
81
81
81
81
C2
3C
ENDCHAR
STARTCHAR omegatonos
ENCODING 974
SWIDTH 520 0
DWIDTH 9 0
BBX 8 14 0 0
BITMAP
08
08
08
10
00
00
81
89
89
89
89
89
99
76
ENDCHAR
STARTCHAR afii10023
ENCODING 1025
SWIDTH 520 0
DWIDTH 10 0
BBX 7 14 1 0
BITMAP
48
00
00
FE
80
80
80
80
FC
80
80
80
80
FE
ENDCHAR
STARTCHAR afii10051
ENCODING 1026
SWIDTH 520 0
DWIDTH 10 0
BBX 10 11 -2 0
BITMAP
F800
2000
2000
2780
38C0
3040
2040
2040
2040
2040
2180
ENDCHAR
STARTCHAR afii10052
ENCODING 1027
SWIDTH 520 0
DWIDTH 10 0
BBX 8 15 1 0
BITMAP
08
10
60
00
FF
80
80
80
80
80
80
80
80
80
80
ENDCHAR
STARTCHAR afii10053
ENCODING 1028
SWIDTH 520 0
DWIDTH 10 0
BBX 8 11 0 0
BITMAP
3D
43
41
81
80
FC
80
80
41
42
3C
ENDCHAR
STARTCHAR afii10054
ENCODING 1029
SWIDTH 520 0
DWIDTH 10 0
BBX 8 11 0 0
BITMAP
3D
C3
81
80
60
1C
06
83
83
C3
BC
ENDCHAR
STARTCHAR afii10055
ENCODING 1030
SWIDTH 520 0
DWIDTH 10 0
BBX 5 11 2 0
BITMAP
F8
20
20
20
20
20
20
20
20
20
F8
ENDCHAR
STARTCHAR afii10056
ENCODING 1031
SWIDTH 520 0
DWIDTH 10 0
BBX 5 14 2 0
BITMAP
90
00
00
F8
20
20
20
20
20
20
20
20
20
F8
ENDCHAR
STARTCHAR afii10057
ENCODING 1032
SWIDTH 520 0
DWIDTH 10 0
BBX 8 11 0 0
BITMAP
01
01
01
01
01
01
01
01
C1
62
3C
ENDCHAR
STARTCHAR afii10058
ENCODING 1033
SWIDTH 520 0
DWIDTH 10 0
BBX 9 11 -1 0
BITMAP
3800
2800
2800
2800
2F00
2880
2880
2880
2880
2B80
EF00
ENDCHAR
STARTCHAR afii10059
ENCODING 1034
SWIDTH 520 0
DWIDTH 10 0
BBX 7 11 1 0
BITMAP
A0
A0
A0
A0
FC
A6
A2
A2
A2
A6
BC
ENDCHAR
STARTCHAR afii10060
ENCODING 1035
SWIDTH 520 0
DWIDTH 10 0
BBX 10 11 -2 0
BITMAP
F800
2000
2000
2780
38C0
3040
2040
2040
2040
2040
2040
ENDCHAR
STARTCHAR afii10061
ENCODING 1036
SWIDTH 520 0
DWIDTH 10 0
BBX 8 15 1 0
BITMAP
08
10
60
00
87
84
88
90
A0
F0
90
88
8C
84
83
ENDCHAR
STARTCHAR afii10062
ENCODING 1038
SWIDTH 520 0
DWIDTH 10 0
BBX 9 14 0 0
BITMAP
3E00
0000
0000
8180
C300
4200
6200
2400
3400
1C00
1800
1800
1000
E000
ENDCHAR
STARTCHAR afii10145
ENCODING 1039
SWIDTH 520 0
DWIDTH 10 0
BBX 7 14 1 -3
BITMAP
82
82
82
82
82
82
82
82
82
82
FE
10
10
10
ENDCHAR
STARTCHAR afii10017
ENCODING 1040
SWIDTH 520 0
DWIDTH 10 0
BBX 10 11 -1 0
BITMAP
0C00
0C00
1A00
1200
1300
3100
2100
3F80
6080
4080
C0C0
ENDCHAR
STARTCHAR afii10018
ENCODING 1041
SWIDTH 520 0
DWIDTH 10 0
BBX 8 11 0 0
BITMAP
FE
80
80
80
FC
82
81
81
81
83
FC
ENDCHAR
STARTCHAR afii10019
ENCODING 1042
SWIDTH 520 0
DWIDTH 10 0
BBX 7 11 1 0
BITMAP
FC
82
82
82
FC
84
82
82
82
86
FC
ENDCHAR
STARTCHAR afii10020
ENCODING 1043
SWIDTH 520 0
DWIDTH 10 0
BBX 8 11 1 0
BITMAP
FF
80
80
80
80
80
80
80
80
80
80
ENDCHAR
STARTCHAR afii10021
ENCODING 1044
SWIDTH 520 0
DWIDTH 10 0
BBX 8 14 0 -3
BITMAP
3C
24
24
24
24
24
24
24
44
44
FF
81
81
81
ENDCHAR
STARTCHAR afii10022
ENCODING 1045
SWIDTH 520 0
DWIDTH 10 0
BBX 7 11 1 0
BITMAP
FE
80
80
80
80
FC
80
80
80
80
FE
ENDCHAR
STARTCHAR afii10024
ENCODING 1046
SWIDTH 520 0
DWIDTH 10 0
BBX 9 11 0 0
BITMAP
C980
4900
6B00
2A00
1C00
3E00
2A00
2A00
4900
4900
8880
ENDCHAR
STARTCHAR afii10025
ENCODING 1047
SWIDTH 520 0
DWIDTH 10 0
BBX 8 11 0 0
BITMAP
BC
C3
81
81
02
0C
03
81
81
C2
3C
ENDCHAR
STARTCHAR afii10026
ENCODING 1048
SWIDTH 520 0
DWIDTH 10 0
BBX 8 11 0 0
BITMAP
83
87
87
8D
99
99
B1
B1
E1
E1
C1
ENDCHAR
STARTCHAR afii10027
ENCODING 1049
SWIDTH 520 0
DWIDTH 10 0
BBX 8 14 0 0
BITMAP
3E
00
00
83
87
87
8D
99
99
B1
B1
E1
E1
C1
ENDCHAR
STARTCHAR afii10028
ENCODING 1050
SWIDTH 520 0
DWIDTH 10 0
BBX 8 11 1 0
BITMAP
87
84
88
90
A0
F0
90
88
8C
84
83
ENDCHAR
STARTCHAR afii10029
ENCODING 1051
SWIDTH 520 0
DWIDTH 10 0
BBX 8 11 0 0
BITMAP
3F
21
21
21
21
21
21
21
21
21
E1
ENDCHAR
STARTCHAR afii10030
ENCODING 1052
SWIDTH 520 0
DWIDTH 10 0
BBX 8 11 0 0
BITMAP
C3
C3
E7
A5
AD
99
99
99
81
81
81
ENDCHAR
STARTCHAR afii10031
ENCODING 1053
SWIDTH 520 0
DWIDTH 10 0
BBX 8 11 0 0
BITMAP
81
81
81
81
81
FF
81
81
81
81
81
ENDCHAR
STARTCHAR afii10032
ENCODING 1054
SWIDTH 520 0
DWIDTH 10 0
BBX 9 11 0 0
BITMAP
3E00
4100
8100
8080
8080
8080
8080
8080
8100
4100
3E00
ENDCHAR
STARTCHAR afii10033
ENCODING 1055
SWIDTH 520 0
DWIDTH 10 0
BBX 8 11 0 0
BITMAP
FF
81
81
81
81
81
81
81
81
81
81
ENDCHAR
STARTCHAR afii10034
ENCODING 1056
SWIDTH 520 0
DWIDTH 10 0
BBX 8 11 0 0
BITMAP
FE
83
81
81
83
FC
80
80
80
80
80
ENDCHAR
STARTCHAR afii10035
ENCODING 1057
SWIDTH 520 0
DWIDTH 10 0
BBX 8 11 0 0
BITMAP
3D
43
81
81
80
80
80
80
81
42
3C
ENDCHAR
STARTCHAR afii10036
ENCODING 1058
SWIDTH 520 0
DWIDTH 11 0
BBX 9 11 0 0
BITMAP
FF80
8880
8880
8880
0800
0800
0800
0800
0800
0800
3E00
ENDCHAR
STARTCHAR afii10037
ENCODING 1059
SWIDTH 520 0
DWIDTH 10 0
BBX 9 11 0 0
BITMAP
8180
C300
4200
6200
2400
3400
1C00
1800
1800
1000
E000
ENDCHAR
STARTCHAR afii10038
ENCODING 1060
SWIDTH 520 0
DWIDTH 10 0
BBX 8 11 0 0
BITMAP
08
1C
6A
89
89
89
89
49
7E
08
08
ENDCHAR
STARTCHAR afii10039
ENCODING 1061
SWIDTH 520 0
DWIDTH 10 0
BBX 8 11 0 0
BITMAP
E7
62
24
34
18
18
18
34
24
62
E7
ENDCHAR
STARTCHAR afii10040
ENCODING 1062
SWIDTH 520 0
DWIDTH 10 0
BBX 8 14 1 -3
BITMAP
82
82
82
82
82
82
82
82
82
82
FF
01
01
01
ENDCHAR
STARTCHAR afii10041
ENCODING 1063
SWIDTH 520 0
DWIDTH 10 0
BBX 8 11 0 0
BITMAP
81
81
81
81
81
83
C5
79
01
01
01
ENDCHAR
STARTCHAR afii10042
ENCODING 1064
SWIDTH 520 0
DWIDTH 11 0
BBX 9 11 0 0
BITMAP
8880
8880
8880
8880
8880
8880
8880
8880
8880
8880
FF80
ENDCHAR
STARTCHAR afii10043
ENCODING 1065
SWIDTH 520 0
DWIDTH 10 0
BBX 9 14 0 -3
BITMAP
8900
8900
8900
8900
8900
8900
8900
8900
8900
8900
FF80
0080
0080
0080
ENDCHAR
STARTCHAR afii10044
ENCODING 1066
SWIDTH 520 0
DWIDTH 10 0
BBX 8 11 0 0
BITMAP
E0
20
20
20
3E
23
21
21
21
23
3E
ENDCHAR
STARTCHAR afii10045
ENCODING 1067
SWIDTH 520 0
DWIDTH 10 0
BBX 8 11 0 0
BITMAP
81
81
81
81
F1
89
89
89
89
89
F1
ENDCHAR
STARTCHAR afii10046
ENCODING 1068
SWIDTH 520 0
DWIDTH 10 0
BBX 8 11 0 0
BITMAP
80
80
80
80
FC
82
81
81
81
83
FC
ENDCHAR
STARTCHAR afii10047
ENCODING 1069
SWIDTH 520 0
DWIDTH 10 0
BBX 9 11 0 0
BITMAP
BE00
C300
8100
8080
0080
1F80
0080
0080
8100
4300
3E00
ENDCHAR
STARTCHAR afii10048
ENCODING 1070
SWIDTH 520 0
DWIDTH 10 0
BBX 7 11 1 0
BITMAP
9C
94
A2
A2
A2
E2
A2
A2
A2
94
9C
ENDCHAR
STARTCHAR afii10049
ENCODING 1071
SWIDTH 520 0
DWIDTH 10 0
BBX 8 11 0 0
BITMAP
3F
C1
81
81
C1
3F
19
31
21
61
C1
ENDCHAR
STARTCHAR afii10065
ENCODING 1072
SWIDTH 520 0
DWIDTH 10 0
BBX 8 8 0 0
BITMAP
3E
43
01
3F
C1
81
83
7D
ENDCHAR
STARTCHAR afii10066
ENCODING 1073
SWIDTH 520 0
DWIDTH 10 0
BBX 8 11 0 0
BITMAP
3F
40
80
BC
C2
81
81
81
81
42
3C
ENDCHAR
STARTCHAR afii10067
ENCODING 1074
SWIDTH 520 0
DWIDTH 10 0
BBX 8 8 1 0
BITMAP
FC
82
82
FC
83
81
81
FE
ENDCHAR
STARTCHAR afii10068
ENCODING 1075
SWIDTH 520 0
DWIDTH 10 0
BBX 8 8 1 0
BITMAP
FF
80
80
80
80
80
80
80
ENDCHAR
STARTCHAR afii10069
ENCODING 1076
SWIDTH 520 0
DWIDTH 10 0
BBX 8 11 0 -3
BITMAP
3C
24
24
24
24
44
44
FF
81
81
81
ENDCHAR
STARTCHAR afii10070
ENCODING 1077
SWIDTH 520 0
DWIDTH 10 0
BBX 8 8 0 0
BITMAP
3C
43
81
FF
80
C0
43
3E
ENDCHAR
STARTCHAR afii10072
ENCODING 1078
SWIDTH 520 0
DWIDTH 10 0
BBX 9 8 0 0
BITMAP
C980
6B00
2A00
1C00
3E00
2A00
4900
C980
ENDCHAR
STARTCHAR afii10073
ENCODING 1079
SWIDTH 520 0
DWIDTH 10 0
BBX 8 8 0 0
BITMAP
3E
41
01
0E
03
01
C3
7E
ENDCHAR
STARTCHAR afii10074
ENCODING 1080
SWIDTH 520 0
DWIDTH 10 0
BBX 8 8 0 0
BITMAP
83
87
8D
99
91
B1
E1
C1
ENDCHAR
STARTCHAR afii10075
ENCODING 1081
SWIDTH 520 0
DWIDTH 10 0
BBX 8 11 0 0
BITMAP
3E
00
00
83
87
8D
99
91
B1
E1
C1
ENDCHAR
STARTCHAR afii10076
ENCODING 1082
SWIDTH 520 0
DWIDTH 10 0
BBX 8 8 1 0
BITMAP
86
8C
98
A0
D0
88
8C
87
ENDCHAR
STARTCHAR afii10077
ENCODING 1083
SWIDTH 520 0
DWIDTH 10 0
BBX 8 8 0 0
BITMAP
3F
21
21
21
21
21
21
E1
ENDCHAR
STARTCHAR afii10078
ENCODING 1084
SWIDTH 520 0
DWIDTH 10 0
BBX 8 8 0 0
BITMAP
C3
E7
E7
BD
99
99
81
81
ENDCHAR
STARTCHAR afii10079
ENCODING 1085
SWIDTH 520 0
DWIDTH 10 0
BBX 8 8 0 0
BITMAP
81
81
81
FF
81
81
81
81
ENDCHAR
STARTCHAR afii10080
ENCODING 1086
SWIDTH 520 0
DWIDTH 10 0
BBX 9 8 0 0
BITMAP
3E00
4100
8080
8080
8080
8080
4100
3E00
ENDCHAR
STARTCHAR afii10081
ENCODING 1087
SWIDTH 520 0
DWIDTH 10 0
BBX 8 8 0 0
BITMAP
FF
81
81
81
81
81
81
81
ENDCHAR
STARTCHAR afii10082
ENCODING 1088
SWIDTH 520 0
DWIDTH 10 0
BBX 8 11 0 -3
BITMAP
BC
C2
81
81
81
81
C2
FC
80
80
80
ENDCHAR
STARTCHAR afii10083
ENCODING 1089
SWIDTH 520 0
DWIDTH 10 0
BBX 8 8 0 0
BITMAP
3D
43
81
80
80
80
43
3E
ENDCHAR
STARTCHAR afii10084
ENCODING 1090
SWIDTH 520 0
DWIDTH 11 0
BBX 9 8 0 0
BITMAP
FF80
8880
8880
8880
0800
0800
0800
3E00
ENDCHAR
STARTCHAR afii10085
ENCODING 1091
SWIDTH 520 0
DWIDTH 10 0
BBX 9 11 0 -3
BITMAP
8180
C300
4200
6200
2400
2400
1C00
1800
1800
1000
E000
ENDCHAR
STARTCHAR afii10086
ENCODING 1092
SWIDTH 520 0
DWIDTH 10 0
BBX 9 14 0 -3
BITMAP
0800
0800
0800
7F00
8880
8880
8880
8880
8880
8880
7F00
0800
0800
0800
ENDCHAR
STARTCHAR afii10087
ENCODING 1093
SWIDTH 520 0
DWIDTH 10 0
BBX 8 8 0 0
BITMAP
E7
26
34
18
18
34
66
E7
ENDCHAR
STARTCHAR afii10088
ENCODING 1094
SWIDTH 520 0
DWIDTH 10 0
BBX 8 11 1 -3
BITMAP
82
82
82
82
82
82
82
FF
01
01
01
ENDCHAR
STARTCHAR afii10089
ENCODING 1095
SWIDTH 520 0
DWIDTH 10 0
BBX 8 8 0 0
BITMAP
81
81
81
83
C5
79
01
01
ENDCHAR
STARTCHAR afii10090
ENCODING 1096
SWIDTH 520 0
DWIDTH 11 0
BBX 9 8 0 0
BITMAP
8880
8880
8880
8880
8880
8880
8880
FF80
ENDCHAR
STARTCHAR afii10091
ENCODING 1097
SWIDTH 520 0
DWIDTH 10 0
BBX 9 11 0 -3
BITMAP
8900
8900
8900
8900
8900
8900
8900
FF80
0080
0080
0080
ENDCHAR
STARTCHAR afii10092
ENCODING 1098
SWIDTH 520 0
DWIDTH 10 0
BBX 8 8 0 0
BITMAP
E0
20
20
3E
21
21
21
3E
ENDCHAR
STARTCHAR afii10093
ENCODING 1099
SWIDTH 520 0
DWIDTH 10 0
BBX 8 8 0 0
BITMAP
81
81
81
F1
89
89
89
F1
ENDCHAR
STARTCHAR afii10094
ENCODING 1100
SWIDTH 520 0
DWIDTH 10 0
BBX 8 8 0 0
BITMAP
80
80
80
FE
81
81
81
FE
ENDCHAR
STARTCHAR afii10095
ENCODING 1101
SWIDTH 520 0
DWIDTH 10 0
BBX 8 8 0 0
BITMAP
3C
C2
01
3F
01
01
C2
3C
ENDCHAR
STARTCHAR afii10096
ENCODING 1102
SWIDTH 520 0
DWIDTH 10 0
BBX 7 8 1 0
BITMAP
9C
A2
A2
E2
A2
A2
A2
9C
ENDCHAR
STARTCHAR afii10097
ENCODING 1103
SWIDTH 520 0
DWIDTH 10 0
BBX 8 8 0 0
BITMAP
7F
81
81
81
7F
11
21
C1
ENDCHAR
STARTCHAR afii10071
ENCODING 1105
SWIDTH 520 0
DWIDTH 10 0
BBX 8 11 0 0
BITMAP
24
00
00
3C
43
81
FF
80
C0
43
3E
ENDCHAR
STARTCHAR afii10099
ENCODING 1106
SWIDTH 520 0
DWIDTH 10 0
BBX 9 14 -1 -3
BITMAP
4000
F000
4000
4F00
7180
6080
4080
4080
4080
4080
4080
0080
0080
0300
ENDCHAR
STARTCHAR afii10100
ENCODING 1107
SWIDTH 520 0
DWIDTH 10 0
BBX 8 12 1 0
BITMAP
08
10
60
00
FF
80
80
80
80
80
80
80
ENDCHAR
STARTCHAR afii10101
ENCODING 1108
SWIDTH 520 0
DWIDTH 10 0
BBX 8 8 0 0
BITMAP
3E
43
80
FC
80
C0
43
3E
ENDCHAR
STARTCHAR afii10102
ENCODING 1109
SWIDTH 520 0
DWIDTH 10 0
BBX 8 8 0 0
BITMAP
7C
82
80
78
0F
01
41
BE
ENDCHAR
STARTCHAR afii10103
ENCODING 1110
SWIDTH 520 0
DWIDTH 10 0
BBX 5 11 2 0
BITMAP
20
20
00
E0
20
20
20
20
20
20
F8
ENDCHAR
STARTCHAR afii10104
ENCODING 1111
SWIDTH 520 0
DWIDTH 10 0
BBX 5 11 2 0
BITMAP
90
00
00
E0
20
20
20
20
20
20
F8
ENDCHAR
STARTCHAR afii10105
ENCODING 1112
SWIDTH 520 0
DWIDTH 10 0
BBX 6 14 0 -3
BITMAP
04
04
00
1C
04
04
04
04
04
04
04
04
8C
78
ENDCHAR
STARTCHAR afii10106
ENCODING 1113
SWIDTH 520 0
DWIDTH 10 0
BBX 9 8 -1 0
BITMAP
3800
2800
2800
2F00
2880
2880
2880
EF00
ENDCHAR
STARTCHAR afii10107
ENCODING 1114
SWIDTH 520 0
DWIDTH 10 0
BBX 7 8 1 0
BITMAP
A0
A0
A0
FC
A2
A2
A2
BC
ENDCHAR
STARTCHAR afii10108
ENCODING 1115
SWIDTH 520 0
DWIDTH 10 0
BBX 9 11 -1 0
BITMAP
4000
F000
4000
4F00
7180
6080
4080
4080
4080
4080
4080
ENDCHAR
STARTCHAR afii10109
ENCODING 1116
SWIDTH 520 0
DWIDTH 10 0
BBX 8 12 1 0
BITMAP
08
10
60
00
86
8C
98
A0
D0
88
8C
87
ENDCHAR
STARTCHAR afii10110
ENCODING 1118
SWIDTH 520 0
DWIDTH 10 0
BBX 9 14 0 -3
BITMAP
3E00
0000
0000
8180
C300
4200
6200
2400
2400
1C00
1800
1800
1000
E000
ENDCHAR
STARTCHAR afii10193
ENCODING 1119
SWIDTH 520 0
DWIDTH 10 0
BBX 7 11 1 -3
BITMAP
82
82
82
82
82
82
82
FE
10
10
10
ENDCHAR
STARTCHAR afii10050
ENCODING 1168
SWIDTH 520 0
DWIDTH 10 0
BBX 8 13 0 0
BITMAP
01
01
FF
80
80
80
80
80
80
80
80
80
80
ENDCHAR
STARTCHAR afii10098
ENCODING 1169
SWIDTH 520 0
DWIDTH 10 0
BBX 8 10 0 0
BITMAP
01
01
FF
80
80
80
80
80
80
80
ENDCHAR
STARTCHAR uni1E02
ENCODING 7682
SWIDTH 520 0
DWIDTH 10 0
BBX 7 14 1 0
BITMAP
10
00
00
FC
82
82
82
FC
84
82
82
82
86
FC
ENDCHAR
STARTCHAR uni1E03
ENCODING 7683
SWIDTH 520 0
DWIDTH 10 0
BBX 8 14 0 0
BITMAP
08
00
00
80
80
80
BC
C2
81
81
81
81
C2
FC
ENDCHAR
STARTCHAR uni1E0A
ENCODING 7690
SWIDTH 520 0
DWIDTH 10 0
BBX 9 14 0 0
BITMAP
0800
0000
0000
FC00
8300
8100
8080
8080
8080
8080
8080
8100
8300
FC00
ENDCHAR
STARTCHAR uni1E0B
ENCODING 7691
SWIDTH 520 0
DWIDTH 10 0
BBX 8 14 0 0
BITMAP
08
00
00
07
01
01
3D
43
81
81
81
81
43
3D
ENDCHAR
STARTCHAR uni1E1E
ENCODING 7710
SWIDTH 520 0
DWIDTH 10 0
BBX 7 14 1 0
BITMAP
10
00
00
FE
80
80
80
80
FC
80
80
80
80
80
ENDCHAR
STARTCHAR uni1E1F
ENCODING 7711
SWIDTH 520 0
DWIDTH 10 0
BBX 7 14 2 0
BITMAP
20
00
00
1E
20
20
FE
20
20
20
20
20
20
F8
ENDCHAR
STARTCHAR uni1E40
ENCODING 7744
SWIDTH 520 0
DWIDTH 10 0
BBX 8 14 0 0
BITMAP
08
00
00
C3
C3
E7
A5
AD
99
99
99
81
81
81
ENDCHAR
STARTCHAR uni1E41
ENCODING 7745
SWIDTH 520 0
DWIDTH 11 0
BBX 9 11 0 0
BITMAP
0800
0000
0000
BB00
CC80
8880
8880
8880
8880
8880
8880
ENDCHAR
STARTCHAR uni1E56
ENCODING 7766
SWIDTH 520 0
DWIDTH 10 0
BBX 8 14 0 0
BITMAP
08
00
00
FE
83
81
81
83
FC
80
80
80
80
80
ENDCHAR
STARTCHAR uni1E57
ENCODING 7767
SWIDTH 520 0
DWIDTH 10 0
BBX 8 14 0 -3
BITMAP
08
00
00
BC
C2
81
81
81
81
C2
FC
80
80
80
ENDCHAR
STARTCHAR uni1E60
ENCODING 7776
SWIDTH 520 0
DWIDTH 10 0
BBX 8 14 0 0
BITMAP
08
00
00
7D
83
81
C0
38
06
03
83
83
C2
BC
ENDCHAR
STARTCHAR uni1E61
ENCODING 7777
SWIDTH 520 0
DWIDTH 10 0
BBX 8 11 0 0
BITMAP
08
00
00
7C
82
80
7C
03
01
41
BE
ENDCHAR
STARTCHAR uni1E6A
ENCODING 7786
SWIDTH 520 0
DWIDTH 11 0
BBX 9 14 0 0
BITMAP
0800
0000
0000
FF80
8880
8880
8880
0800
0800
0800
0800
0800
0800
3E00
ENDCHAR
STARTCHAR uni1E6B
ENCODING 7787
SWIDTH 520 0
DWIDTH 10 0
BBX 8 14 0 0
BITMAP
08
00
00
20
20
20
FE
20
20
20
20
21
31
1E
ENDCHAR
STARTCHAR Wgrave
ENCODING 7808
SWIDTH 520 0
DWIDTH 10 0
BBX 10 15 -1 0
BITMAP
1000
0C00
0200
0000
C0C0
40C0
4080
4C80
6C80
6C80
2D80
2B00
3300
3300
3300
ENDCHAR
STARTCHAR wgrave
ENCODING 7809
SWIDTH 520 0
DWIDTH 10 0
BBX 9 12 0 0
BITMAP
2000
1800
0400
0000
9980
9900
D900
5900
5700
6600
6600
6600
ENDCHAR
STARTCHAR Wacute
ENCODING 7810
SWIDTH 520 0
DWIDTH 10 0
BBX 10 15 -1 0
BITMAP
0200
0400
1800
0000
C0C0
40C0
4080
4C80
6C80
6C80
2D80
2B00
3300
3300
3300
ENDCHAR
STARTCHAR wacute
ENCODING 7811
SWIDTH 520 0
DWIDTH 10 0
BBX 9 12 0 0
BITMAP
0400
0800
3000
0000
9980
9900
D900
5900
5700
6600
6600
6600
ENDCHAR
STARTCHAR Wdieresis
ENCODING 7812
SWIDTH 520 0
DWIDTH 10 0
BBX 10 14 -1 0
BITMAP
1200
0000
0000
C0C0
40C0
4080
4C80
6C80
6C80
2D80
2B00
3300
3300
3300
ENDCHAR
STARTCHAR wdieresis
ENCODING 7813
SWIDTH 520 0
DWIDTH 10 0
BBX 9 11 0 0
BITMAP
2400
0000
0000
9980
9900
D900
5900
5700
6600
6600
6600
ENDCHAR
STARTCHAR Ygrave
ENCODING 7922
SWIDTH 520 0
DWIDTH 10 0
BBX 9 15 0 0
BITMAP
2000
1800
0400
0000
F780
2200
2200
1400
1400
0800
0800
0800
0800
0800
3E00
ENDCHAR
STARTCHAR ygrave
ENCODING 7923
SWIDTH 520 0
DWIDTH 10 0
BBX 9 15 0 -3
BITMAP
2000
1800
0400
0000
8180
C300
4200
6200
2400
2400
1C00
1800
1800
1000
E000
ENDCHAR
STARTCHAR endash
ENCODING 8211
SWIDTH 520 0
DWIDTH 10 0
BBX 8 1 0 4
BITMAP
FF
ENDCHAR
STARTCHAR emdash
ENCODING 8212
SWIDTH 520 0
DWIDTH 10 0
BBX 10 1 -1 4
BITMAP
FFC0
ENDCHAR
STARTCHAR afii00208
ENCODING 8213
SWIDTH 520 0
DWIDTH 10 0
BBX 8 1 0 4
BITMAP
FF
ENDCHAR
STARTCHAR quoteleft
ENCODING 8216
SWIDTH 520 0
DWIDTH 10 0
BBX 3 4 4 7
BITMAP
60
80
80
E0
ENDCHAR
STARTCHAR quoteright
ENCODING 8217
SWIDTH 520 0
DWIDTH 10 0
BBX 3 4 2 7
BITMAP
E0
20
20
C0
ENDCHAR
STARTCHAR quotesinglbase
ENCODING 8218
SWIDTH 520 0
DWIDTH 10 0
BBX 3 4 5 -3
BITMAP
E0
20
20
C0
ENDCHAR
STARTCHAR quotedblleft
ENCODING 8220
SWIDTH 520 0
DWIDTH 10 0
BBX 8 4 0 7
BITMAP
63
84
84
E7
ENDCHAR
STARTCHAR quotedblright
ENCODING 8221
SWIDTH 520 0
DWIDTH 10 0
BBX 8 4 0 7
BITMAP
E7
21
21
C6
ENDCHAR
STARTCHAR quotedblbase
ENCODING 8222
SWIDTH 520 0
DWIDTH 10 0
BBX 8 4 0 -3
BITMAP
E7
21
23
C6
ENDCHAR
STARTCHAR dagger
ENCODING 8224
SWIDTH 520 0
DWIDTH 10 0
BBX 5 8 2 3
BITMAP
20
20
F8
20
20
20
20
20
ENDCHAR
STARTCHAR daggerdbl
ENCODING 8225
SWIDTH 520 0
DWIDTH 10 0
BBX 5 9 2 2
BITMAP
20
20
F8
20
20
20
F8
20
20
ENDCHAR
STARTCHAR bullet
ENCODING 8226
SWIDTH 520 0
DWIDTH 10 0
BBX 6 6 2 2
BITMAP
78
FC
FC
FC
FC
78
ENDCHAR
STARTCHAR ellipsis
ENCODING 8230
SWIDTH 520 0
DWIDTH 10 0
BBX 8 1 0 0
BITMAP
D9
ENDCHAR
STARTCHAR perthousand
ENCODING 8240
SWIDTH 520 0
DWIDTH 11 0
BBX 10 11 0 0
BITMAP
6400
B800
B800
7000
1000
2000
2000
5D80
5640
5640
9D80
ENDCHAR
STARTCHAR guilsinglleft
ENCODING 8249
SWIDTH 520 0
DWIDTH 10 0
BBX 3 6 2 1
BITMAP
20
60
C0
C0
60
20
ENDCHAR
STARTCHAR guilsinglright
ENCODING 8250
SWIDTH 520 0
DWIDTH 10 0
BBX 3 6 3 1
BITMAP
80
40
20
20
40
80
ENDCHAR
STARTCHAR fraction
ENCODING 8260
SWIDTH 520 0
DWIDTH 10 0
BBX 8 12 0 0
BITMAP
01
03
02
04
04
08
10
10
20
40
40
80
ENDCHAR
STARTCHAR Euro
ENCODING 8364
SWIDTH 520 0
DWIDTH 10 0
BBX 8 11 0 0
BITMAP
1E
23
21
F8
60
60
F8
20
21
33
1E
ENDCHAR
STARTCHAR afii61352
ENCODING 8470
SWIDTH 520 0
DWIDTH 11 0
BBX 10 11 0 0
BITMAP
D000
D000
D000
D380
D440
B440
B440
B380
B000
B000
97C0
ENDCHAR
STARTCHAR trademark
ENCODING 8482
SWIDTH 520 0
DWIDTH 10 0
BBX 10 4 0 7
BITMAP
FEC0
26C0
2540
2540
ENDCHAR
STARTCHAR Omega
ENCODING 8486
SWIDTH 520 0
DWIDTH 10 0
BBX 8 11 0 0
BITMAP
3C
42
81
81
81
81
81
43
66
24
E7
ENDCHAR
STARTCHAR partialdiff
ENCODING 8706
SWIDTH 520 0
DWIDTH 10 0
BBX 9 11 0 0
BITMAP
1000
2C00
0200
0100
0E80
3080
C080
8080
8080
C100
3E00
ENDCHAR
STARTCHAR Delta
ENCODING 8710
SWIDTH 520 0
DWIDTH 10 0
BBX 10 11 -1 0
BITMAP
0C00
0C00
1A00
1200
1300
3100
2100
2180
6080
4080
FFC0
ENDCHAR
STARTCHAR product
ENCODING 8719
SWIDTH 520 0
DWIDTH 10 0
BBX 9 11 0 0
BITMAP
FF80
2200
2200
2200
2200
2200
2200
2200
2200
2200
2200
ENDCHAR
STARTCHAR summation
ENCODING 8721
SWIDTH 520 0
DWIDTH 10 0
BBX 7 11 1 0
BITMAP
FE
82
42
62
20
30
20
62
42
82
FE
ENDCHAR
STARTCHAR minus
ENCODING 8722
SWIDTH 520 0
DWIDTH 10 0
BBX 8 1 0 4
BITMAP
FF
ENDCHAR
STARTCHAR radical
ENCODING 8730
SWIDTH 520 0
DWIDTH 10 0
BBX 8 10 0 0
BITMAP
07
04
08
88
88
50
50
50
30
20
ENDCHAR
STARTCHAR infinity
ENCODING 8734
SWIDTH 520 0
DWIDTH 10 0
BBX 8 4 0 2
BITMAP
77
99
99
77
ENDCHAR
STARTCHAR integral
ENCODING 8747
SWIDTH 520 0
DWIDTH 10 0
BBX 8 18 1 -3
BITMAP
0F
18
10
10
10
10
10
10
10
10
10
10
10
10
10
10
30
E0
ENDCHAR
STARTCHAR approxequal
ENCODING 8776
SWIDTH 520 0
DWIDTH 10 0
BBX 8 6 0 1
BITMAP
71
8F
00
21
D9
86
ENDCHAR
STARTCHAR notequal
ENCODING 8800
SWIDTH 520 0
DWIDTH 10 0
BBX 8 8 0 0
BITMAP
06
FF
08
08
10
FF
20
20
ENDCHAR
STARTCHAR lessequal
ENCODING 8804
SWIDTH 520 0
DWIDTH 10 0
BBX 6 11 2 -2
BITMAP
08
10
20
40
80
40
20
10
08
00
FC
ENDCHAR
STARTCHAR greaterequal
ENCODING 8805
SWIDTH 520 0
DWIDTH 10 0
BBX 6 11 2 -2
BITMAP
40
20
10
08
04
08
10
20
40
00
FC
ENDCHAR
STARTCHAR uni2303
ENCODING 8963
SWIDTH 520 0
DWIDTH 10 0
BBX 9 5 0 0
BITMAP
0800
1C00
2600
C300
8180
ENDCHAR
STARTCHAR uni2318
ENCODING 8984
SWIDTH 520 0
DWIDTH 10 0
BBX 8 8 1 1
BITMAP
E7
A5
FF
24
24
FF
A5
E7
ENDCHAR
STARTCHAR uni2324
ENCODING 8996
SWIDTH 520 0
DWIDTH 10 0
BBX 9 6 0 0
BITMAP
E300
1800
3C00
6600
C300
8180
ENDCHAR
STARTCHAR optionkey
ENCODING 8997
SWIDTH 520 0
DWIDTH 10 0
BBX 10 6 0 0
BITMAP
F1C0
1800
0800
0400
0600
03C0
ENDCHAR
STARTCHAR erasetotheright
ENCODING 8998
SWIDTH 520 0
DWIDTH 10 0
BBX 9 11 1 0
BITMAP
F000
8800
8400
D200
B900
B080
E900
8200
8400
8800
F000
ENDCHAR
STARTCHAR uni237d
ENCODING 9085
SWIDTH 520 0
DWIDTH 10 0
BBX 10 3 0 0
BITMAP
E1C0
2100
3F00
ENDCHAR
STARTCHAR uni2388
ENCODING 9096
SWIDTH 520 0
DWIDTH 10 0
BBX 9 8 2 0
BITMAP
F200
C100
A080
9080
0880
4080
2100
1E00
ENDCHAR
STARTCHAR uni23ce
ENCODING 9166
SWIDTH 520 0
DWIDTH 10 0
BBX 10 8 0 0
BITMAP
07C0
0040
0040
2080
4180
FE00
4000
2000
ENDCHAR
STARTCHAR uni2423
ENCODING 9251
SWIDTH 520 0
DWIDTH 10 0
BBX 7 3 1 0
BITMAP
82
82
FE
ENDCHAR
STARTCHAR SF100000
ENCODING 9472
SWIDTH 520 0
DWIDTH 10 0
BBX 10 1 0 5
BITMAP
FFC0
ENDCHAR
STARTCHAR SF110000
ENCODING 9474
SWIDTH 520 0
DWIDTH 10 0
BBX 1 18 4 -3
BITMAP
80
80
80
80
80
80
80
80
80
80
80
80
80
80
80
80
80
80
ENDCHAR
STARTCHAR SF010000
ENCODING 9484
SWIDTH 520 0
DWIDTH 10 0
BBX 6 9 4 -3
BITMAP
FC
80
80
80
80
80
80
80
80
ENDCHAR
STARTCHAR SF030000
ENCODING 9488
SWIDTH 520 0
DWIDTH 10 0
BBX 5 9 0 -3
BITMAP
F8
08
08
08
08
08
08
08
08
ENDCHAR
STARTCHAR SF020000
ENCODING 9492
SWIDTH 520 0
DWIDTH 10 0
BBX 6 10 4 5
BITMAP
80
80
80
80
80
80
80
80
80
FC
ENDCHAR
STARTCHAR SF040000
ENCODING 9496
SWIDTH 520 0
DWIDTH 10 0
BBX 5 10 0 5
BITMAP
08
08
08
08
08
08
08
08
08
F8
ENDCHAR
STARTCHAR SF080000
ENCODING 9500
SWIDTH 520 0
DWIDTH 10 0
BBX 6 18 4 -3
BITMAP
80
80
80
80
80
80
80
80
80
FC
80
80
80
80
80
80
80
80
ENDCHAR
STARTCHAR SF090000
ENCODING 9508
SWIDTH 520 0
DWIDTH 10 0
BBX 5 18 0 -3
BITMAP
08
08
08
08
08
08
08
08
08
F8
08
08
08
08
08
08
08
08
ENDCHAR
STARTCHAR SF060000
ENCODING 9516
SWIDTH 520 0
DWIDTH 10 0
BBX 10 9 0 -3
BITMAP
FFC0
0800
0800
0800
0800
0800
0800
0800
0800
ENDCHAR
STARTCHAR SF070000
ENCODING 9524
SWIDTH 520 0
DWIDTH 10 0
BBX 10 10 0 5
BITMAP
0800
0800
0800
0800
0800
0800
0800
0800
0800
FFC0
ENDCHAR
STARTCHAR SF050000
ENCODING 9532
SWIDTH 520 0
DWIDTH 10 0
BBX 10 18 0 -3
BITMAP
0800
0800
0800
0800
0800
0800
0800
0800
0800
FFC0
0800
0800
0800
0800
0800
0800
0800
0800
ENDCHAR
STARTCHAR SF430000
ENCODING 9552
SWIDTH 520 0
DWIDTH 10 0
BBX 10 4 0 4
BITMAP
FFC0
0000
0000
FFC0
ENDCHAR
STARTCHAR SF240000
ENCODING 9553
SWIDTH 520 0
DWIDTH 10 0
BBX 4 18 2 -3
BITMAP
90
90
90
90
90
90
90
90
90
90
90
90
90
90
90
90
90
90
ENDCHAR
STARTCHAR SF510000
ENCODING 9554
SWIDTH 520 0
DWIDTH 10 0
BBX 6 11 4 -3
BITMAP
1C
10
10
FC
80
80
80
80
80
80
80
ENDCHAR
STARTCHAR SF520000
ENCODING 9555
SWIDTH 520 0
DWIDTH 10 0
BBX 8 9 2 -3
BITMAP
1F
10
10
F0
90
90
90
90
90
ENDCHAR
STARTCHAR SF390000
ENCODING 9556
SWIDTH 520 0
DWIDTH 10 0
BBX 8 11 2 -3
BITMAP
FF
80
80
9F
90
90
90
90
90
90
90
ENDCHAR
STARTCHAR SF220000
ENCODING 9557
SWIDTH 520 0
DWIDTH 10 0
BBX 5 11 0 -3
BITMAP
E0
20
20
F8
08
08
08
08
08
08
08
ENDCHAR
STARTCHAR SF210000
ENCODING 9558
SWIDTH 520 0
DWIDTH 10 0
BBX 6 9 0 -3
BITMAP
E0
20
20
3C
24
24
24
24
24
ENDCHAR
STARTCHAR SF250000
ENCODING 9559
SWIDTH 520 0
DWIDTH 10 0
BBX 6 11 0 -3
BITMAP
FC
04
04
E4
24
24
24
24
24
24
24
ENDCHAR
STARTCHAR SF500000
ENCODING 9560
SWIDTH 520 0
DWIDTH 10 0
BBX 6 11 4 4
BITMAP
80
80
80
80
80
80
80
FC
10
10
1C
ENDCHAR
STARTCHAR SF490000
ENCODING 9561
SWIDTH 520 0
DWIDTH 10 0
BBX 8 10 2 5
BITMAP
90
90
90
90
90
F0
10
10
10
1F
ENDCHAR
STARTCHAR SF380000
ENCODING 9562
SWIDTH 520 0
DWIDTH 10 0
BBX 8 11 2 4
BITMAP
90
90
90
90
90
90
90
9F
80
80
FF
ENDCHAR
STARTCHAR SF280000
ENCODING 9563
SWIDTH 520 0
DWIDTH 10 0
BBX 5 11 0 4
BITMAP
08
08
08
08
08
08
08
F8
80
80
80
ENDCHAR
STARTCHAR SF270000
ENCODING 9564
SWIDTH 520 0
DWIDTH 10 0
BBX 6 10 0 5
BITMAP
24
24
24
24
24
3C
20
20
20
E0
ENDCHAR
STARTCHAR SF260000
ENCODING 9565
SWIDTH 520 0
DWIDTH 10 0
BBX 6 11 0 4
BITMAP
24
24
24
24
24
24
24
E4
04
04
FC
ENDCHAR
STARTCHAR SF360000
ENCODING 9566
SWIDTH 520 0
DWIDTH 10 0
BBX 6 18 4 -3
BITMAP
80
80
80
80
80
80
80
FC
00
00
FC
80
80
80
80
80
80
80
ENDCHAR
STARTCHAR SF370000
ENCODING 9567
SWIDTH 520 0
DWIDTH 10 0
BBX 8 18 2 -3
BITMAP
90
90
90
90
90
90
90
90
90
9F
90
90
90
90
90
90
90
90
ENDCHAR
STARTCHAR SF420000
ENCODING 9568
SWIDTH 520 0
DWIDTH 10 0
BBX 8 18 2 -3
BITMAP
90
90
90
90
90
90
90
9F
80
80
9F
90
90
90
90
90
90
90
ENDCHAR
STARTCHAR SF190000
ENCODING 9569
SWIDTH 520 0
DWIDTH 10 0
BBX 5 18 0 -3
BITMAP
08
08
08
08
08
08
08
F8
00
00
F8
08
08
08
08
08
08
08
ENDCHAR
STARTCHAR SF200000
ENCODING 9570
SWIDTH 520 0
DWIDTH 10 0
BBX 6 18 0 -3
BITMAP
24
24
24
24
24
24
24
24
24
E4
24
24
24
24
24
24
24
24
ENDCHAR
STARTCHAR SF230000
ENCODING 9571
SWIDTH 520 0
DWIDTH 10 0
BBX 6 18 0 -3
BITMAP
24
24
24
24
24
24
24
E4
04
04
E4
24
24
24
24
24
24
24
ENDCHAR
STARTCHAR SF470000
ENCODING 9572
SWIDTH 520 0
DWIDTH 10 0
BBX 10 11 0 -3
BITMAP
FFC0
0000
0000
FFC0
0800
0800
0800
0800
0800
0800
0800
ENDCHAR
STARTCHAR SF480000
ENCODING 9573
SWIDTH 520 0
DWIDTH 10 0
BBX 10 9 0 -3
BITMAP
E7C0
2400
2400
2400
2400
2400
2400
2400
2400
ENDCHAR
STARTCHAR SF410000
ENCODING 9574
SWIDTH 520 0
DWIDTH 10 0
BBX 10 11 0 -3
BITMAP
FFC0
0000
0000
E7C0
2400
2400
2400
2400
2400
2400
2400
ENDCHAR
STARTCHAR SF450000
ENCODING 9575
SWIDTH 520 0
DWIDTH 10 0
BBX 10 11 0 4
BITMAP
0800
0800
0800
0800
0800
0800
0800
FFC0
0000
0000
FFC0
ENDCHAR
STARTCHAR SF460000
ENCODING 9576
SWIDTH 520 0
DWIDTH 10 0
BBX 10 10 0 5
BITMAP
2400
2400
2400
2400
2400
2400
2400
2400
2400
E7C0
ENDCHAR
STARTCHAR SF400000
ENCODING 9577
SWIDTH 520 0
DWIDTH 10 0
BBX 10 11 0 4
BITMAP
2400
2400
2400
2400
2400
2400
2400
E7C0
0000
0000
FFC0
ENDCHAR
STARTCHAR SF540000
ENCODING 9578
SWIDTH 520 0
DWIDTH 10 0
BBX 10 18 0 -3
BITMAP
0800
0800
0800
0800
0800
0800
0800
FFC0
0000
0000
FFC0
0800
0800
0800
0800
0800
0800
0800
ENDCHAR
STARTCHAR SF530000
ENCODING 9579
SWIDTH 520 0
DWIDTH 10 0
BBX 10 18 0 -3
BITMAP
2400
2400
2400
2400
2400
2400
2400
2400
2400
E7C0
2400
2400
2400
2400
2400
2400
2400
2400
ENDCHAR
STARTCHAR SF440000
ENCODING 9580
SWIDTH 520 0
DWIDTH 10 0
BBX 10 18 0 -3
BITMAP
2400
2400
2400
2400
2400
2400
2400
E7C0
0000
0000
E7C0
2400
2400
2400
2400
2400
2400
2400
ENDCHAR
STARTCHAR blackdiamond
ENCODING 9670
SWIDTH 520 0
DWIDTH 10 0
BBX 8 8 0 0
BITMAP
08
1C
7E
FF
FF
7E
1C
08
ENDCHAR
STARTCHAR lozenge
ENCODING 9674
SWIDTH 520 0
DWIDTH 10 0
BBX 8 8 0 0
BITMAP
08
34
42
81
C1
62
14
08
ENDCHAR
STARTCHAR checkmark
ENCODING 10003
SWIDTH 520 0
DWIDTH 10 0
BBX 10 7 0 0
BITMAP
0040
0080
8300
4600
6C00
3800
1000
ENDCHAR
STARTCHAR shift
ENCODING 57344
SWIDTH 520 0
DWIDTH 10 0
BBX 8 8 0 0
BITMAP
08
34
44
42
E7
24
24
3C
ENDCHAR
STARTCHAR shiftlock
ENCODING 57345
SWIDTH 520 0
DWIDTH 10 0
BBX 8 8 0 0
BITMAP
08
1C
26
67
FF
3C
3C
3C
ENDCHAR
STARTCHAR verticaltab
ENCODING 57346
SWIDTH 520 0
DWIDTH 10 0
BBX 9 8 0 0
BITMAP
E380
0080
0080
0480
0880
DF80
0800
0400
ENDCHAR
STARTCHAR copy
ENCODING 57347
SWIDTH 520 0
DWIDTH 10 0
BBX 8 11 1 0
BITMAP
F8
8C
8A
8F
91
91
FD
91
91
81
FF
ENDCHAR
STARTCHAR back
ENCODING 57348
SWIDTH 520 0
DWIDTH 10 0
BBX 9 9 1 0
BITMAP
0200
8400
8800
9000
BF80
9000
8800
8400
8200
ENDCHAR
STARTCHAR endtab
ENCODING 57349
SWIDTH 520 0
DWIDTH 10 0
BBX 10 8 0 0
BITMAP
F800
8000
8000
4100
6080
1FC0
0080
0100
ENDCHAR
STARTCHAR insert
ENCODING 57350
SWIDTH 520 0
DWIDTH 10 0
BBX 9 8 1 0
BITMAP
E380
8000
8000
9000
8800
FD80
0800
1000
ENDCHAR
STARTCHAR tab
ENCODING 57351
SWIDTH 520 0
DWIDTH 10 0
BBX 9 9 0 0
BITMAP
2000
3080
1880
0C80
FE80
0C80
1880
3080
2080
ENDCHAR
STARTCHAR uniE0B0
ENCODING 57520
SWIDTH 520 0
DWIDTH 10 0
BBX 10 20 0 -5
BITMAP
8000
C000
E000
F000
F800
FC00
FE00
FF00
FF80
FFC0
FF80
FF00
FE00
FC00
F800
F000
E000
C000
8000
8000
ENDCHAR
STARTCHAR uniE0B2
ENCODING 57522
SWIDTH 520 0
DWIDTH 10 0
BBX 11 20 0 -5
BITMAP
0060
00E0
01E0
03E0
0FE0
1FE0
3FE0
7FE0
FFE0
FFE0
7FE0
3FE0
1FE0
0FE0
07E0
03E0
03E0
01E0
00E0
0060
ENDCHAR
STARTCHAR uniE0B8
ENCODING 57528
SWIDTH 520 0
DWIDTH 10 0
BBX 10 20 0 -5
BITMAP
8000
8000
8000
C000
C000
E000
E000
F000
F000
F800
F800
FC00
FC00
FE00
FE00
FF00
FF00
FF80
FF80
FFC0
ENDCHAR
STARTCHAR uniE0BA
ENCODING 57530
SWIDTH 520 0
DWIDTH 10 0
BBX 11 20 0 -5
BITMAP
0060
0060
00E0
00E0
01E0
01E0
03E0
03E0
07E0
07E0
0FE0
0FE0
1FE0
1FE0
3FE0
3FE0
7FE0
7FE0
FFE0
FFE0
ENDCHAR
STARTCHAR uniE0BC
ENCODING 57532
SWIDTH 520 0
DWIDTH 10 0
BBX 10 20 0 -5
BITMAP
FFC0
FF80
FF80
FF00
FF00
FE00
FE00
FC00
FC00
F800
F800
F000
F000
E000
E000
C000
C000
8000
8000
8000
ENDCHAR
STARTCHAR uniE0BE
ENCODING 57534
SWIDTH 520 0
DWIDTH 10 0
BBX 11 20 0 -5
BITMAP
FFE0
FFE0
7FE0
7FE0
3FE0
3FE0
1FE0
1FE0
0FE0
0FE0
07E0
07E0
03E0
03E0
01E0
01E0
00E0
00E0
0060
0060
ENDCHAR
STARTCHAR commaaccent
ENCODING 63171
SWIDTH 520 0
DWIDTH 10 0
BBX 2 2 3 -3
BITMAP
C0
80
ENDCHAR
STARTCHAR apple
ENCODING 63743
SWIDTH 520 0
DWIDTH 10 0
BBX 10 12 0 0
BITMAP
0200
0600
0400
7F80
FFC0
FF00
FF00
FF80
FF80
7FC0
7F80
3F00
ENDCHAR
STARTCHAR appleopen
ENCODING 63744
SWIDTH 520 0
DWIDTH 10 0
BBX 10 12 0 0
BITMAP
0200
0600
0400
7F80
8080
8100
8100
8100
8080
40C0
4080
3F00
ENDCHAR
STARTCHAR fi
ENCODING 64257
SWIDTH 520 0
DWIDTH 10 0
BBX 10 11 0 0
BITMAP
1E00
2000
2000
FF00
2100
2100
2100
2100
2100
2100
FFC0
ENDCHAR
STARTCHAR fl
ENCODING 64258
SWIDTH 520 0
DWIDTH 10 0
BBX 10 11 0 0
BITMAP
1F00
2100
2100
F900
2100
2100
2100
2100
2100
2100
FFC0
ENDCHAR
STARTCHAR .notdef
ENCODING -1
SWIDTH 520 0
DWIDTH 10 0
BBX 8 11 0 0
BITMAP
FF
81
81
81
81
81
81
81
81
81
FF
ENDCHAR
ENDFONT
